<svg xmlns="http://www.w3.org/2000/svg" width="48" height="48" viewBox="0 0 48 48" fill="none">
  <path d="M26.9092 14.2688V21.0543H20.1238C19.5856 21.0543 19.1565 21.4906 19.1565 22.0216V28.807H12.3638C11.8256 28.807 11.3965 29.2434 11.3965 29.7743V41.4106C11.3965 41.9488 11.8328 42.3779 12.3638 42.3779C12.9019 42.3779 13.331 41.9416 13.331 41.4106V30.7488H19.1492V41.4179C19.1492 41.9561 19.5856 42.3852 20.1165 42.3852C20.6547 42.3852 21.0838 41.9488 21.0838 41.4179V29.7816V22.9961H26.9019V41.4179C26.9019 41.9561 27.3383 42.3852 27.8692 42.3852C28.4074 42.3852 28.8365 41.9488 28.8365 41.4179V22.0216V15.2361H34.6547V41.4179C34.6547 41.9561 35.091 42.3852 35.6219 42.3852C36.1601 42.3852 36.5892 41.9488 36.5892 41.4179V14.2688V7.48337H42.4074V41.4252C42.4074 41.9634 42.8438 42.3925 43.3747 42.3925C43.9128 42.3925 44.3419 41.9561 44.3419 41.4252V6.5161C44.3419 5.97792 43.9056 5.54883 43.3747 5.54883H35.6365C35.0983 5.54883 34.6692 5.98519 34.6692 6.5161V13.3016H27.8838C27.3456 13.2943 26.9092 13.7306 26.9092 14.2688Z" fill="white"/>
  <path d="M46.3052 44.3281H1.69432C1.16341 44.3281 0.727051 44.7645 0.727051 45.3027C0.727051 45.8409 1.16341 46.2699 1.69432 46.2699H46.298C46.8361 46.2699 47.2652 45.8336 47.2652 45.3027C47.2725 44.7645 46.8361 44.3281 46.3052 44.3281Z" fill="white"/>
  <path d="M2.66902 24.5959C13.6654 24.5959 22.6472 15.8832 23.1199 4.99592L25.6945 7.57047C26.2763 8.09411 26.8799 7.75956 27.069 7.57047C27.4472 7.19229 27.4472 6.58138 27.069 6.19592L22.8872 2.01411C22.509 1.63592 21.8981 1.63592 21.5127 2.01411L17.3308 6.19592C16.9527 6.57411 16.9527 7.18501 17.3308 7.57047C17.709 7.94865 18.3199 7.94865 18.7054 7.57047L21.1781 5.09047C20.6545 14.8577 12.5672 22.6541 2.66902 22.6541C2.13084 22.6541 1.70175 23.0905 1.70175 23.6214C1.69448 24.1596 2.13084 24.5959 2.66902 24.5959Z" fill="white"/>
</svg>