<svg width="32" height="33" viewBox="0 0 32 33" fill="none" xmlns="http://www.w3.org/2000/svg">
<g id="clapperboard-play">
<path id="Vector" d="M12.8427 20.9015V21.7939L13.6038 21.328L20.8252 16.9069L21.5217 16.4805L20.8252 16.054L13.6038 11.633L12.8427 11.167V12.0594V20.9015ZM3.16675 8.9082C3.16675 8.07978 3.83832 7.4082 4.66675 7.4082H27.3334C28.1618 7.4082 28.8334 8.07978 28.8334 8.90821V17.7436V24.691C28.8334 24.8844 28.7526 25.0758 28.599 25.2212C28.4446 25.3675 28.2296 25.4542 28.0001 25.4542H4.00008C3.77061 25.4542 3.55561 25.3675 3.40114 25.2212C3.2476 25.0758 3.16675 24.8844 3.16675 24.691V8.9082Z" fill="white" stroke="white"/>
</g>
</svg>
