<svg width="54" height="53" viewBox="0 0 54 53" fill="none" xmlns="http://www.w3.org/2000/svg">
<path d="M18.9372 37.459H20.1952C20.415 38.0649 20.9991 38.5027 21.6905 38.5027C22.5688 38.5027 23.2835 37.8003 23.2835 36.9371C23.2835 36.074 22.5688 35.3716 21.6905 35.3716C20.9991 35.3716 20.415 35.8094 20.1952 36.4153H18.9372C18.7174 35.8094 18.1333 35.3716 17.4419 35.3716C16.5636 35.3716 15.8489 36.074 15.8489 36.9371C15.8489 37.8003 16.5636 38.5027 17.4419 38.5027C18.1333 38.5027 18.7174 38.0649 18.9372 37.459ZM21.6899 36.4153C21.9825 36.4153 22.2209 36.6491 22.2209 36.9371C22.2209 37.2252 21.9825 37.459 21.6899 37.459C21.3974 37.459 21.1589 37.2252 21.1589 36.9371C21.1589 36.6491 21.3974 36.4153 21.6899 36.4153ZM16.9109 36.9371C16.9109 36.6491 17.1493 36.4153 17.4419 36.4153C17.7345 36.4153 17.9729 36.6491 17.9729 36.9371C17.9729 37.2252 17.7345 37.459 17.4419 37.459C17.1493 37.459 16.9109 37.2252 16.9109 36.9371Z" fill="white"/>
<path d="M37.1868 35.3716C37.4067 35.9775 37.9908 36.4153 38.6821 36.4153C39.5604 36.4153 40.2751 35.7129 40.2751 34.8497C40.2751 33.9866 39.5604 33.2842 38.6821 33.2842C37.9908 33.2842 37.4067 33.722 37.1868 34.3279H33.9031C33.61 34.3279 33.3721 34.5611 33.3721 34.8497V37.555C32.7556 37.771 32.3101 38.3451 32.3101 39.0245C32.3101 39.8877 33.0248 40.5901 33.9031 40.5901C34.7814 40.5901 35.4961 39.8877 35.4961 39.0245C35.4961 38.3451 35.0506 37.771 34.4341 37.555V35.3716H37.1868ZM38.6821 34.3279C38.9747 34.3279 39.2131 34.5617 39.2131 34.8497C39.2131 35.1378 38.9747 35.3716 38.6821 35.3716C38.3895 35.3716 38.1511 35.1378 38.1511 34.8497C38.1511 34.5617 38.3895 34.3279 38.6821 34.3279ZM33.9031 39.5464C33.6105 39.5464 33.3721 39.3126 33.3721 39.0245C33.3721 38.7365 33.6105 38.5027 33.9031 38.5027C34.1957 38.5027 34.4341 38.7365 34.4341 39.0245C34.4341 39.3126 34.1957 39.5464 33.9031 39.5464Z" fill="white"/>
<path d="M27 10.8447C18.2161 10.8447 11.0698 17.8678 11.0698 26.5002C11.0698 26.7888 11.3077 27.0221 11.6008 27.0221H19.0349V28.6837C18.5852 28.8413 18.231 29.1893 18.0706 29.6313H15.5377L14.1003 28.2187C14.001 28.1206 13.8656 28.0658 13.7249 28.0658H11.6008V29.1095H13.505L14.9425 30.5221C15.0417 30.6203 15.1772 30.675 15.3179 30.675H18.0706C18.231 31.1171 18.5852 31.4651 19.0349 31.6227V32.7625H15.7512C15.5313 32.1566 14.9472 31.7188 14.2559 31.7188C13.3776 31.7188 12.6628 32.4212 12.6628 33.2843C12.6628 34.1474 13.3776 34.8499 14.2559 34.8499C14.9472 34.8499 15.5313 34.412 15.7512 33.8062H19.5659C19.859 33.8062 20.0969 33.5729 20.0969 33.2843V31.6227C20.7134 31.4067 21.1589 30.8326 21.1589 30.1532C21.1589 29.4737 20.7134 28.8997 20.0969 28.6837V27.0221H22.2209V32.7625C22.2209 32.9013 22.2767 33.0338 22.3765 33.1314L24.345 35.0659V39.1207C23.7285 39.3367 23.283 39.9108 23.283 40.5902C23.283 41.4534 23.9977 42.1558 24.876 42.1558C25.7543 42.1558 26.469 41.4534 26.469 40.5902C26.469 39.9108 26.0235 39.3367 25.407 39.1207V35.0659L26.3134 34.1751C26.4132 34.0775 26.469 33.945 26.469 33.8062V31.1009C27.0855 30.8848 27.531 30.3108 27.531 29.6313C27.531 28.9519 27.0855 28.3779 26.469 28.1618V27.0221H31.5592L30.3416 28.2187C30.2418 28.3163 30.186 28.4488 30.186 28.5876V29.7274C29.5695 29.9434 29.124 30.5175 29.124 31.1969C29.124 31.8763 29.5695 32.4504 30.186 32.6664V34.112L29.2796 35.0028C29.1798 35.1003 29.124 35.2329 29.124 35.3717V38.5988C28.5075 38.8149 28.062 39.3889 28.062 40.0684C28.062 40.9315 28.7767 41.6339 29.655 41.6339C30.5333 41.6339 31.248 40.9315 31.248 40.0684C31.248 39.3889 30.8025 38.8149 30.186 38.5988V35.5878L31.0925 34.697C31.1923 34.5994 31.248 34.4668 31.248 34.328V32.6664C31.6978 32.5088 32.052 32.1608 32.2124 31.7188H34.9651C35.1058 31.7188 35.2412 31.664 35.3405 31.5658L36.7779 30.1532H39.3108C39.5307 30.7591 40.1148 31.1969 40.8062 31.1969C41.6844 31.1969 42.3992 30.4945 42.3992 29.6313C42.3992 28.9519 41.9537 28.3779 41.3372 28.1618V27.0221H42.3992C42.6923 27.0221 42.9302 26.7888 42.9302 26.5002C42.9302 17.8678 35.7839 10.8447 27 10.8447ZM14.2559 33.8062C13.9633 33.8062 13.7249 33.5724 13.7249 33.2843C13.7249 32.9962 13.9633 32.7625 14.2559 32.7625C14.5484 32.7625 14.7869 32.9962 14.7869 33.2843C14.7869 33.5724 14.5484 33.8062 14.2559 33.8062ZM19.5659 30.675C19.2733 30.675 19.0349 30.4413 19.0349 30.1532C19.0349 29.8651 19.2733 29.6313 19.5659 29.6313C19.8585 29.6313 20.0969 29.8651 20.0969 30.1532C20.0969 30.4413 19.8585 30.675 19.5659 30.675ZM29.655 40.5902C29.3624 40.5902 29.124 40.3564 29.124 40.0684C29.124 39.7803 29.3624 39.5465 29.655 39.5465C29.9476 39.5465 30.186 39.7803 30.186 40.0684C30.186 40.3564 29.9476 40.5902 29.655 40.5902ZM39.8753 19.2006C39.0406 19.5252 38.1309 19.8148 37.1624 20.0684C36.7047 18.6474 36.1004 17.3397 35.3761 16.1822C35.9549 16.0377 36.496 15.8764 37.001 15.7016C38.1315 16.714 39.1043 17.8923 39.8753 19.2006ZM31.7753 25.9784C31.7621 24.6785 31.7005 23.3712 31.5911 22.0974C33.2866 21.9283 34.9168 21.6669 36.4323 21.3219C36.8146 22.7779 37.0397 24.344 37.0796 25.9784H31.7753ZM29.492 15.9839C28.6774 16.0335 27.8459 16.0632 27 16.0632C26.1541 16.0632 25.3226 16.0335 24.508 15.9839C25.2509 13.348 26.2056 11.8884 27 11.8884C27.7944 11.8884 28.7491 13.348 29.492 15.9839ZM29.0279 12.1854C30.7643 12.7004 32.3382 13.8673 33.6264 15.496C32.6711 15.6729 31.6431 15.8065 30.5731 15.902C30.16 14.3636 29.6439 13.0762 29.0279 12.1854ZM29.757 17.0146C30.0368 18.2091 30.2742 19.5925 30.4425 21.1508C29.3147 21.2358 28.1629 21.2817 27 21.2817C25.8371 21.2817 24.6853 21.2358 23.558 21.1508C23.7263 19.5925 23.9637 18.2091 24.2435 17.0146C25.1431 17.0741 26.0649 17.1069 27 17.1069C27.9351 17.1069 28.8569 17.0741 29.757 17.0146ZM23.4269 15.9015C22.3569 15.806 21.3289 15.6724 20.3736 15.4955C21.6618 13.8662 23.2352 12.6999 24.9721 12.1848C24.3561 13.0762 23.84 14.3636 23.4269 15.9015ZM23.1752 16.9264C22.89 18.1955 22.6681 19.5962 22.5098 21.0594C20.8802 20.8971 19.3153 20.6477 17.8614 20.3189C18.3281 18.8765 18.9537 17.5636 19.704 16.4244C20.7819 16.6435 21.9485 16.8116 23.1752 16.9264ZM22.4084 22.0974C22.299 23.3712 22.2374 24.6785 22.2241 25.9784H16.9194C16.9592 24.3445 17.1844 22.7779 17.5667 21.3219C19.0827 21.6674 20.7129 21.9283 22.4084 22.0974ZM23.4593 22.1892C24.62 22.278 25.8047 22.3254 27 22.3254C28.1953 22.3254 29.38 22.278 30.5407 22.1892C30.64 23.3671 30.7006 24.632 30.7128 25.9784H23.2867C23.2994 24.6325 23.36 23.3671 23.4593 22.1892ZM31.4907 21.0594C31.3325 19.5962 31.1105 18.1955 30.8254 16.9264C32.0515 16.8116 33.2186 16.6435 34.2966 16.4249C35.0469 17.5646 35.6724 18.8776 36.1391 20.3194C34.6852 20.6477 33.1204 20.8971 31.4907 21.0594ZM36.0478 14.9178C35.6384 15.042 35.2046 15.1563 34.7511 15.2617C34.1011 14.3777 33.3753 13.6048 32.5883 12.9619C33.8351 13.4602 34.9964 14.1219 36.0478 14.9178ZM19.2484 15.2611C18.7949 15.1557 18.3616 15.0414 17.9517 14.9172C19.0036 14.1219 20.1644 13.4597 21.4112 12.9614C20.6242 13.6043 19.8983 14.3777 19.2484 15.2611ZM16.999 15.7021C17.504 15.8769 18.0446 16.0382 18.6239 16.1827C17.8996 17.3402 17.2953 18.648 16.8376 20.069C15.8696 19.8153 14.9594 19.5257 14.1247 19.2011C14.8957 17.8923 15.8685 16.714 16.999 15.7021ZM13.6261 20.1279C14.5208 20.4817 15.4984 20.7964 16.5413 21.0704C16.1351 22.6078 15.8983 24.2589 15.8579 25.9789H12.1409C12.2163 23.8868 12.7446 21.908 13.6261 20.1279ZM24.876 41.1121C24.5834 41.1121 24.345 40.8783 24.345 40.5902C24.345 40.3021 24.5834 40.0684 24.876 40.0684C25.1686 40.0684 25.407 40.3021 25.407 40.5902C25.407 40.8783 25.1686 41.1121 24.876 41.1121ZM25.938 30.1532C25.6454 30.1532 25.407 29.9194 25.407 29.6313C25.407 29.3433 25.6454 29.1095 25.938 29.1095C26.2306 29.1095 26.469 29.3433 26.469 29.6313C26.469 29.9194 26.2306 30.1532 25.938 30.1532ZM25.407 28.1618C24.7905 28.3779 24.345 28.9519 24.345 29.6313C24.345 30.3108 24.7905 30.8848 25.407 31.1009V33.5901L24.876 34.112L23.283 32.5464V27.0221H25.407V28.1618ZM30.717 31.7188C30.4245 31.7188 30.186 31.485 30.186 31.1969C30.186 30.9088 30.4245 30.675 30.717 30.675C31.0096 30.675 31.248 30.9088 31.248 31.1969C31.248 31.485 31.0096 31.7188 30.717 31.7188ZM40.8062 30.1532C40.5136 30.1532 40.2751 29.9194 40.2751 29.6313C40.2751 29.3433 40.5136 29.1095 40.8062 29.1095C41.0987 29.1095 41.3372 29.3433 41.3372 29.6313C41.3372 29.9194 41.0987 30.1532 40.8062 30.1532ZM40.2751 28.1618C39.8254 28.3194 39.4712 28.6675 39.3108 29.1095H36.5581C36.4174 29.1095 36.282 29.1643 36.1827 29.2624L34.7453 30.675H32.2124C32.052 30.233 31.6978 29.885 31.248 29.7274V28.8037L33.0609 27.0221H40.2751V28.1618ZM38.1416 25.9784C38.1012 24.2584 37.8644 22.6072 37.4582 21.0699C38.5011 20.7964 39.4786 20.4812 40.3734 20.1274C41.2554 21.908 41.7837 23.8868 41.8586 25.9784H38.1416Z" fill="white"/>
<path d="M41.5 52.1055H12.5C9.43624 52.1031 6.49866 50.906 4.33225 48.7769C2.16585 46.6479 0.947713 43.7609 0.945312 40.75V12.25C0.947713 9.23907 2.16585 6.35213 4.33225 4.22308C6.49866 2.09402 9.43624 0.89689 12.5 0.894531H41.5C44.5638 0.89689 47.5013 2.09402 49.6677 4.22308C51.8342 6.35213 53.0523 9.23907 53.0547 12.25V40.75C53.0523 43.7609 51.8342 46.6479 49.6677 48.7769C47.5013 50.906 44.5638 52.1031 41.5 52.1055ZM12.5 2.23047C9.79751 2.23518 7.20707 3.29232 5.29612 5.17032C3.38516 7.04833 2.30948 9.5941 2.30469 12.25V40.75C2.30948 43.4059 3.38516 45.9517 5.29612 47.8297C7.20707 49.7077 9.79751 50.7648 12.5 50.7695H41.5C44.2025 50.7648 46.7929 49.7077 48.7039 47.8297C50.6148 45.9517 51.6905 43.4059 51.6953 40.75V12.25C51.6905 9.5941 50.6148 7.04833 48.7039 5.17032C46.7929 3.29232 44.2025 2.23518 41.5 2.23047H12.5Z" fill="white"/>
</svg>
