<svg width="54" height="52" viewBox="0 0 54 52" fill="none" xmlns="http://www.w3.org/2000/svg">
<g clip-path="url(#clip0_143_315)">
<path d="M43.1792 23.7309L37.6996 16.8583C37.4968 16.6041 37.1269 16.5414 36.8464 16.7136L33.3086 18.886H28.6946C28.6349 18.886 28.5754 18.8983 28.518 18.9145L24.9405 19.9088L21.2283 18.9285L17.6214 16.7136C17.3456 16.5443 16.9824 16.6017 16.7774 16.8472L10.7166 24.0956C10.4988 24.356 10.5348 24.7363 10.7976 24.9546L13.9742 27.5941L16.8241 31.3022C15.9906 32.1595 16.0068 33.5117 16.874 34.3492C17.2584 34.7201 17.7472 34.9297 18.25 34.9784C18.2326 35.0884 18.2236 35.2 18.2236 35.3134C18.2236 35.8984 18.4596 36.4485 18.888 36.8621C19.3166 37.2759 19.8863 37.5038 20.4923 37.5038C20.5005 37.5038 20.5085 37.5034 20.5165 37.5031C20.5162 37.5181 20.5155 37.5328 20.5155 37.5477C20.5155 38.1328 20.7515 38.6829 21.1799 39.0967C21.6085 39.5103 22.1782 39.7382 22.7842 39.7382C22.9038 39.7382 23.0222 39.7288 23.1384 39.7114C23.1876 40.1986 23.4051 40.6727 23.7908 41.045C24.2329 41.4721 24.8138 41.6856 25.3948 41.6856C25.9758 41.6856 26.5567 41.4721 26.9991 41.045L27.346 40.7101L27.4917 40.8234C27.9303 41.2336 28.4997 41.4386 29.0692 41.4386C29.6502 41.4386 30.2312 41.2252 30.6733 40.7981C31.1246 40.3623 31.3457 39.7871 31.3364 39.2149C31.9289 39.2235 32.5248 39.0104 32.9762 38.5748C33.427 38.1393 33.6481 37.5646 33.6393 36.9926C34.2565 37.002 34.842 36.7731 35.2788 36.3513C35.7302 35.9156 35.9512 35.3404 35.942 34.7681C36.5349 34.7768 37.1304 34.5636 37.5817 34.1278C38.352 33.3841 38.4512 32.2345 37.88 31.3858L39.9608 27.1781L43.0892 24.5788C43.3478 24.364 43.3872 23.9916 43.1792 23.7309ZM17.416 18.0567L20.0097 19.649L14.3676 26.2858L12.1066 24.4069L17.416 18.0567ZM17.782 32.1279L18.5648 31.3721C18.5885 31.3492 18.6135 31.3275 18.6389 31.3072C18.792 31.1866 18.9774 31.1148 19.1737 31.0976C19.1792 31.0972 19.1849 31.0972 19.1904 31.0969C19.2184 31.0948 19.2464 31.0933 19.2746 31.0935C19.5429 31.0972 19.7921 31.203 19.977 31.3914C20.3396 31.7616 20.3202 32.3664 19.9335 32.7397L19.1744 33.4726C18.7905 33.8433 18.1659 33.8433 17.782 33.4726C17.3981 33.1017 17.3981 32.4985 17.782 32.1279ZM19.7959 35.9855C19.6098 35.8061 19.5074 35.5673 19.5074 35.3134C19.5074 35.0594 19.6098 34.8207 19.7959 34.641L21.3138 33.1755C21.6045 32.8948 22.0616 32.8178 22.4332 32.9888C22.8164 33.1651 23.0319 33.5666 22.9757 33.9706C22.9458 34.1862 22.8419 34.3892 22.6825 34.5433L21.1886 35.9855C21.0025 36.1652 20.7553 36.264 20.4923 36.264C20.2292 36.264 19.982 36.1652 19.7959 35.9855ZM22.0878 38.2198C21.9017 38.0404 21.7993 37.8017 21.7993 37.5477C21.7993 37.2938 21.9017 37.055 22.0878 36.8754L23.6054 35.4098C23.9164 35.1098 24.4152 35.0452 24.7958 35.2591C25.1435 35.4545 25.3256 35.8379 25.2659 36.2199C25.2332 36.4299 25.1298 36.6275 24.9742 36.7777L23.4805 38.2198C23.2945 38.3995 23.0472 38.4984 22.7842 38.4984C22.5212 38.4984 22.2739 38.3995 22.0878 38.2198ZM24.6984 40.1684C24.3145 39.7978 24.3145 39.1946 24.6984 38.8239L25.4812 38.0681C25.505 38.0452 25.5297 38.0238 25.5552 38.0035C25.5559 38.003 25.5564 38.0026 25.5569 38.0021C25.6843 37.9022 25.8339 37.8354 25.9935 37.8062C25.9973 37.8058 26.001 37.8053 26.0048 37.8048C26.0322 37.8 26.0602 37.7961 26.0882 37.7937C26.0994 37.7927 26.1107 37.7927 26.1221 37.792C26.1451 37.7908 26.1679 37.7894 26.1911 37.7896C26.4591 37.7932 26.7086 37.8989 26.8934 38.0874C26.9162 38.1106 26.9374 38.1347 26.9569 38.1595C27.2521 38.5321 27.2124 39.0856 26.846 39.4396L26.0909 40.1687C25.707 40.5393 25.0823 40.5391 24.6984 40.1684ZM36.6738 33.2512C36.2899 33.6221 35.6652 33.6219 35.2813 33.2512C35.2673 33.2377 35.2526 33.2252 35.2376 33.2133L31.1099 29.186C30.8603 28.9426 30.454 28.9407 30.2019 29.1816C29.9499 29.4223 29.9479 29.8147 30.1972 30.058L34.3697 34.1286C34.3702 34.129 34.3707 34.1295 34.3712 34.13C34.7551 34.5007 34.7551 35.104 34.3712 35.4747C34.1851 35.6544 33.9378 35.7533 33.6748 35.7533C33.4115 35.7533 33.1643 35.6544 32.9784 35.4747L30.1872 32.7518C29.9379 32.5084 29.5315 32.5065 29.2795 32.7472C29.0275 32.9881 29.0255 33.3805 29.2748 33.6238L32.0233 36.305C32.0373 36.3219 32.0523 36.3381 32.0682 36.3535C32.4521 36.7242 32.4521 37.3275 32.0682 37.6982C31.6841 38.0689 31.0592 38.0686 30.6753 37.698L29.1519 36.2117C28.9024 35.9684 28.496 35.9662 28.244 36.2071C27.9919 36.4478 27.9899 36.8402 28.2392 37.0835L29.7201 38.528C29.7341 38.5449 29.7491 38.5613 29.7653 38.5768C30.1492 38.9474 30.1492 39.5508 29.7653 39.9215C29.3814 40.2924 28.7568 40.2921 28.3729 39.9215C28.3286 39.8788 28.2767 39.846 28.2272 39.8093C28.1853 39.7785 28.1743 39.757 28.1953 39.7078C28.2165 39.6579 28.2482 39.6128 28.2694 39.5626C28.2929 39.5067 28.3119 39.449 28.3304 39.3912C28.4288 39.0849 28.4578 38.7555 28.4136 38.4376C28.3286 37.8277 27.9812 37.2774 27.4547 36.9291C27.1702 36.7413 26.841 36.6181 26.4998 36.5717C26.6652 35.8676 26.4666 35.104 25.9501 34.5771C25.5249 34.1435 24.9507 33.9002 24.333 33.892C24.3105 33.8917 24.2881 33.8917 24.2653 33.892C24.2791 33.3228 24.0648 32.7573 23.6584 32.3428C23.233 31.9092 22.6588 31.6658 22.0413 31.6576C21.8578 31.6552 21.6724 31.674 21.4936 31.7138C21.4172 31.2004 21.1492 30.7253 20.7433 30.3855C20.3399 30.0484 19.8326 29.8612 19.2923 29.854C18.7236 29.846 18.1649 30.0486 17.7425 30.4169L15.261 27.1884L21.1976 20.2054L23.0896 20.7051L20.6186 24.915C20.3199 25.4241 20.2445 26.0149 20.4061 26.5788C20.5677 27.1429 20.9468 27.6122 21.4741 27.9006C21.5071 27.9187 21.5403 27.9358 21.574 27.9522C21.5765 27.9534 21.579 27.9546 21.5818 27.9558C21.6704 27.9985 21.7616 28.0352 21.854 28.066C22.2844 28.21 22.7492 28.2257 23.1975 28.1061C23.7815 27.95 24.2676 27.5837 24.5663 27.0749L26.1721 24.3389L29.0392 24.5352L36.6741 31.9065C37.0577 32.2774 37.0577 32.8805 36.6738 33.2512ZM36.9398 30.4101L29.7776 23.4951C29.7641 23.4818 29.7499 23.4693 29.7351 23.4574C29.632 23.3745 29.5041 23.3243 29.3692 23.3152L25.8586 23.0747C25.6159 23.0586 25.3746 23.1832 25.2547 23.3875L23.4493 26.4637C23.3197 26.6847 23.1086 26.8436 22.8551 26.9113C22.6018 26.9791 22.3361 26.9473 22.107 26.8221C21.8782 26.697 21.7136 26.4932 21.6435 26.2484C21.5733 26.0036 21.606 25.747 21.7359 25.5261L24.1459 21.4194L25.1226 21.1481C25.129 21.1462 25.1353 21.1438 25.1418 21.1418L28.7867 20.1256H33.1907L38.6887 26.8737L36.9398 30.4101ZM39.5297 25.9009L34.4453 19.657L37.0402 18.0636L41.7912 24.022L39.5297 25.9009Z" fill="white"/>
<path d="M30.4079 17.7222C30.5723 17.7222 30.7366 17.6616 30.862 17.5406L35.247 13.3067C35.4978 13.0646 35.4978 12.6723 35.247 12.4301C34.9962 12.188 34.5899 12.188 34.3391 12.4301L29.9541 16.6639C29.7033 16.9061 29.7033 17.2984 29.9541 17.5406C30.0795 17.6616 30.2438 17.7222 30.4079 17.7222Z" fill="white"/>
<path d="M23.0246 17.5406C23.15 17.6616 23.3144 17.7222 23.4787 17.7222C23.6428 17.7222 23.8072 17.6616 23.9326 17.5406C24.1833 17.2984 24.1833 16.9061 23.9326 16.6639L19.5475 12.4301C19.2968 12.188 18.8904 12.188 18.6396 12.4301C18.3888 12.6723 18.3888 13.0646 18.6396 13.3067L23.0246 17.5406Z" fill="white"/>
<path d="M26.9433 17.7219C27.2977 17.7219 27.5852 17.4443 27.5852 17.1021V13.5983C27.5852 13.2561 27.2977 12.9785 26.9433 12.9785C26.5889 12.9785 26.3014 13.2561 26.3014 13.5983V17.1021C26.3014 17.4443 26.5889 17.7219 26.9433 17.7219Z" fill="white"/>
<path d="M26.3509 11.3522C26.4528 11.5907 26.7069 11.7472 26.9749 11.7337C27.2396 11.7205 27.4722 11.5478 27.5541 11.3045C27.6363 11.0592 27.5468 10.7797 27.334 10.6234C27.117 10.4638 26.8143 10.4549 26.5872 10.5998C26.3339 10.7614 26.2358 11.0831 26.3509 11.3522Z" fill="white"/>
</g>
<path d="M41.5 51.1562H12.5C9.43624 51.1539 6.49866 49.9778 4.33225 47.8861C2.16585 45.7944 0.947713 42.9581 0.945312 40V12C0.947713 9.04189 2.16585 6.2056 4.33225 4.1139C6.49866 2.0222 9.43624 0.846067 12.5 0.84375H41.5C44.5638 0.846067 47.5013 2.0222 49.6677 4.1139C51.8342 6.2056 53.0523 9.04189 53.0547 12V40C53.0523 42.9581 51.8342 45.7944 49.6677 47.8861C47.5013 49.9778 44.5638 51.1539 41.5 51.1562ZM12.5 2.15625C9.79751 2.16088 7.20707 3.19947 5.29612 5.04453C3.38516 6.88959 2.30948 9.3907 2.30469 12V40C2.30948 42.6093 3.38516 45.1104 5.29612 46.9555C7.20707 48.8005 9.79751 49.8391 12.5 49.8438H41.5C44.2025 49.8391 46.7929 48.8005 48.7039 46.9555C50.6148 45.1104 51.6905 42.6093 51.6953 40V12C51.6905 9.3907 50.6148 6.88959 48.7039 5.04453C46.7929 3.19947 44.2025 2.16088 41.5 2.15625H12.5Z" fill="white"/>
<defs>
<clipPath id="clip0_143_315">
<rect width="32.7383" height="31.6094" fill="white" transform="translate(10.5742 10.25)"/>
</clipPath>
</defs>
</svg>
