<svg width="59" height="58" viewBox="0 0 59 58" fill="none" xmlns="http://www.w3.org/2000/svg">
<path d="M21.4379 39.9585H22.6959C22.9157 40.5644 23.4998 41.0022 24.1912 41.0022C25.0695 41.0022 25.7842 40.2998 25.7842 39.4366C25.7842 38.5735 25.0695 37.8711 24.1912 37.8711C23.4998 37.8711 22.9157 38.3089 22.6959 38.9148H21.4379C21.2181 38.3089 20.634 37.8711 19.9426 37.8711C19.0643 37.8711 18.3496 38.5735 18.3496 39.4366C18.3496 40.2998 19.0643 41.0022 19.9426 41.0022C20.634 41.0022 21.2181 40.5644 21.4379 39.9585ZM24.1907 38.9148C24.4833 38.9148 24.7217 39.1486 24.7217 39.4366C24.7217 39.7247 24.4833 39.9585 24.1907 39.9585C23.8981 39.9585 23.6597 39.7247 23.6597 39.4366C23.6597 39.1486 23.8981 38.9148 24.1907 38.9148ZM19.4116 39.4366C19.4116 39.1486 19.65 38.9148 19.9426 38.9148C20.2352 38.9148 20.4736 39.1486 20.4736 39.4366C20.4736 39.7247 20.2352 39.9585 19.9426 39.9585C19.65 39.9585 19.4116 39.7247 19.4116 39.4366Z" fill="white"/>
<path d="M39.6873 37.8726C39.9071 38.4784 40.4912 38.9163 41.1826 38.9163C42.0609 38.9163 42.7756 38.2138 42.7756 37.3507C42.7756 36.4876 42.0609 35.7852 41.1826 35.7852C40.4912 35.7852 39.9071 36.223 39.6873 36.8289H36.4036C36.1104 36.8289 35.8726 37.0621 35.8726 37.3507V40.056C35.2561 40.272 34.8105 40.8461 34.8105 41.5255C34.8105 42.3887 35.5253 43.0911 36.4036 43.0911C37.2818 43.0911 37.9966 42.3887 37.9966 41.5255C37.9966 40.8461 37.5511 40.272 36.9346 40.056V37.8726H39.6873ZM41.1826 36.8289C41.4752 36.8289 41.7136 37.0626 41.7136 37.3507C41.7136 37.6388 41.4752 37.8726 41.1826 37.8726C40.89 37.8726 40.6516 37.6388 40.6516 37.3507C40.6516 37.0626 40.89 36.8289 41.1826 36.8289ZM36.4036 42.0474C36.111 42.0474 35.8726 41.8136 35.8726 41.5255C35.8726 41.2375 36.111 41.0037 36.4036 41.0037C36.6961 41.0037 36.9346 41.2375 36.9346 41.5255C36.9346 41.8136 36.6961 42.0474 36.4036 42.0474Z" fill="white"/>
<path d="M29.5005 13.3438C20.7166 13.3438 13.5703 20.3668 13.5703 28.9993C13.5703 29.2879 13.8082 29.5211 14.1013 29.5211H21.5354V31.1827C21.0856 31.3403 20.7315 31.6884 20.5711 32.1304H18.0382L16.6008 30.7177C16.5015 30.6196 16.3661 30.5648 16.2253 30.5648H14.1013V31.6085H16.0055L17.4429 33.0212C17.5422 33.1193 17.6776 33.1741 17.8184 33.1741H20.5711C20.7315 33.6161 21.0856 33.9642 21.5354 34.1218V35.2615H18.2517C18.0318 34.6556 17.4477 34.2178 16.7563 34.2178C15.8781 34.2178 15.1633 34.9202 15.1633 35.7833C15.1633 36.6465 15.8781 37.3489 16.7563 37.3489C17.4477 37.3489 18.0318 36.911 18.2517 36.3052H22.0664C22.3595 36.3052 22.5974 36.0719 22.5974 35.7833V34.1218C23.2139 33.9057 23.6594 33.3317 23.6594 32.6522C23.6594 31.9728 23.2139 31.3987 22.5974 31.1827V29.5211H24.7214V35.2615C24.7214 35.4003 24.7772 35.5328 24.877 35.6304L26.8455 37.5649V41.6197C26.229 41.8357 25.7834 42.4098 25.7834 43.0892C25.7834 43.9524 26.4982 44.6548 27.3765 44.6548C28.2547 44.6548 28.9695 43.9524 28.9695 43.0892C28.9695 42.4098 28.524 41.8357 27.9075 41.6197V37.5649L28.8139 36.6741C28.9137 36.5765 28.9695 36.444 28.9695 36.3052V33.5999C29.586 33.3839 30.0315 32.8098 30.0315 32.1304C30.0315 31.4509 29.586 30.8769 28.9695 30.6608V29.5211H34.0597L32.8421 30.7177C32.7423 30.8153 32.6865 30.9479 32.6865 31.0867V32.2264C32.07 32.4424 31.6245 33.0165 31.6245 33.6959C31.6245 34.3754 32.07 34.9494 32.6865 35.1655V36.611L31.7801 37.5018C31.6803 37.5994 31.6245 37.7319 31.6245 37.8707V41.0979C31.008 41.3139 30.5625 41.8879 30.5625 42.5674C30.5625 43.4305 31.2772 44.1329 32.1555 44.1329C33.0338 44.1329 33.7485 43.4305 33.7485 42.5674C33.7485 41.8879 33.303 41.3139 32.6865 41.0979V38.0868L33.593 37.196C33.6928 37.0984 33.7485 36.9658 33.7485 36.827V35.1655C34.1983 35.0079 34.5525 34.6598 34.7128 34.2178H37.4656C37.6063 34.2178 37.7417 34.163 37.841 34.0649L39.2784 32.6522H41.8113C42.0312 33.2581 42.6153 33.6959 43.3066 33.6959C44.1849 33.6959 44.8997 32.9935 44.8997 32.1304C44.8997 31.4509 44.4541 30.8769 43.8376 30.6608V29.5211H44.8997C45.1928 29.5211 45.4307 29.2879 45.4307 28.9993C45.4307 20.3668 38.2844 13.3438 29.5005 13.3438ZM16.7563 36.3052C16.4638 36.3052 16.2253 36.0714 16.2253 35.7833C16.2253 35.4953 16.4638 35.2615 16.7563 35.2615C17.0489 35.2615 17.2874 35.4953 17.2874 35.7833C17.2874 36.0714 17.0489 36.3052 16.7563 36.3052ZM22.0664 33.1741C21.7738 33.1741 21.5354 32.9403 21.5354 32.6522C21.5354 32.3642 21.7738 32.1304 22.0664 32.1304C22.359 32.1304 22.5974 32.3642 22.5974 32.6522C22.5974 32.9403 22.359 33.1741 22.0664 33.1741ZM32.1555 43.0892C31.8629 43.0892 31.6245 42.8554 31.6245 42.5674C31.6245 42.2793 31.8629 42.0455 32.1555 42.0455C32.4481 42.0455 32.6865 42.2793 32.6865 42.5674C32.6865 42.8554 32.4481 43.0892 32.1555 43.0892ZM42.3758 21.6996C41.541 22.0242 40.6314 22.3138 39.6629 22.5675C39.2052 21.1465 38.6009 19.8387 37.8766 18.6812C38.4554 18.5367 38.9965 18.3754 39.5015 18.2006C40.632 19.213 41.6048 20.3913 42.3758 21.6996ZM34.2758 28.4774C34.2625 27.1775 34.201 25.8703 34.0916 24.5964C35.7871 24.4273 37.4173 24.1659 38.9327 23.8209C39.3151 25.2769 39.5402 26.843 39.58 28.4774H34.2758ZM31.9925 18.4829C31.1779 18.5325 30.3464 18.5623 29.5005 18.5623C28.6546 18.5623 27.823 18.5325 27.0085 18.4829C27.7514 15.8471 28.7061 14.3875 29.5005 14.3875C30.2949 14.3875 31.2496 15.8471 31.9925 18.4829ZM31.5284 14.6844C33.2648 15.1995 34.8387 16.3663 36.1269 17.995C35.1716 18.1719 34.1436 18.3055 33.0736 18.401C32.6605 16.8626 32.1444 15.5752 31.5284 14.6844ZM32.2575 19.5136C32.5373 20.7081 32.7747 22.0915 32.943 23.6498C31.8151 23.7348 30.6634 23.7808 29.5005 23.7808C28.3376 23.7808 27.1858 23.7348 26.0585 23.6498C26.2268 22.0915 26.4642 20.7081 26.744 19.5136C27.6436 19.5731 28.5654 19.606 29.5005 19.606C30.4356 19.606 31.3574 19.5731 32.2575 19.5136ZM25.9273 18.4005C24.8574 18.305 23.8293 18.1714 22.8741 17.9945C24.1623 16.3653 25.7357 15.1989 27.4726 14.6839C26.8566 15.5752 26.3405 16.8626 25.9273 18.4005ZM25.6757 19.4254C25.3905 20.6945 25.1685 22.0952 25.0103 23.5585C23.3806 23.3962 21.8158 23.1467 20.3619 22.8179C20.8286 21.3756 21.4542 20.0626 22.2045 18.9234C23.2824 19.1426 24.449 19.3106 25.6757 19.4254ZM24.9089 24.5964C24.7995 25.8703 24.7379 27.1775 24.7246 28.4774H19.4199C19.4597 26.8435 19.6848 25.2769 20.0672 23.8209C21.5832 24.1664 23.2134 24.4273 24.9089 24.5964ZM25.9597 24.6883C27.1205 24.777 28.3052 24.8245 29.5005 24.8245C30.6958 24.8245 31.8805 24.777 33.0412 24.6883C33.1405 25.8661 33.2011 27.131 33.2133 28.4774H25.7872C25.7999 27.1316 25.8604 25.8661 25.9597 24.6883ZM33.9912 23.5585C33.833 22.0952 33.611 20.6945 33.3259 19.4254C34.5519 19.3106 35.7191 19.1426 36.797 18.9239C37.5474 20.0636 38.1729 21.3766 38.6396 22.8185C37.1857 23.1467 35.6209 23.3962 33.9912 23.5585ZM38.5483 17.4168C38.1389 17.541 37.7051 17.6553 37.2516 17.7607C36.6016 16.8767 35.8757 16.1038 35.0888 15.4609C36.3356 15.9593 37.4969 16.621 38.5483 17.4168ZM21.7489 17.7602C21.2954 17.6548 20.8621 17.5405 20.4521 17.4163C21.5041 16.621 22.6649 15.9587 23.9117 15.4604C23.1247 16.1033 22.3988 16.8767 21.7489 17.7602ZM19.4995 18.2011C20.0045 18.376 20.5451 18.5372 21.1244 18.6818C20.4001 19.8392 19.7958 21.147 19.3381 22.568C18.3701 22.3144 17.4599 22.0247 16.6252 21.7001C17.3962 20.3913 18.369 19.213 19.4995 18.2011ZM16.1266 22.6269C17.0213 22.9808 17.9989 23.2954 19.0418 23.5694C18.6356 25.1068 18.3987 26.7579 18.3584 28.4779H14.6414C14.7168 26.3858 15.2451 24.407 16.1266 22.6269ZM27.3765 43.6111C27.0839 43.6111 26.8455 43.3773 26.8455 43.0892C26.8455 42.8012 27.0839 42.5674 27.3765 42.5674C27.669 42.5674 27.9075 42.8012 27.9075 43.0892C27.9075 43.3773 27.669 43.6111 27.3765 43.6111ZM28.4385 32.6522C28.1459 32.6522 27.9075 32.4184 27.9075 32.1304C27.9075 31.8423 28.1459 31.6085 28.4385 31.6085C28.7311 31.6085 28.9695 31.8423 28.9695 32.1304C28.9695 32.4184 28.7311 32.6522 28.4385 32.6522ZM27.9075 30.6608C27.291 30.8769 26.8455 31.4509 26.8455 32.1304C26.8455 32.8098 27.291 33.3839 27.9075 33.5999V36.0891L27.3765 36.611L25.7834 35.0454V29.5211H27.9075V30.6608ZM33.2175 34.2178C32.9249 34.2178 32.6865 33.984 32.6865 33.6959C32.6865 33.4079 32.9249 33.1741 33.2175 33.1741C33.5101 33.1741 33.7485 33.4079 33.7485 33.6959C33.7485 33.984 33.5101 34.2178 33.2175 34.2178ZM43.3066 32.6522C43.0141 32.6522 42.7756 32.4184 42.7756 32.1304C42.7756 31.8423 43.0141 31.6085 43.3066 31.6085C43.5992 31.6085 43.8376 31.8423 43.8376 32.1304C43.8376 32.4184 43.5992 32.6522 43.3066 32.6522ZM42.7756 30.6608C42.3259 30.8184 41.9717 31.1665 41.8113 31.6085H39.0586C38.9179 31.6085 38.7825 31.6633 38.6832 31.7614L37.2457 33.1741H34.7128C34.5525 32.7321 34.1983 32.384 33.7485 32.2264V31.3027L35.5614 29.5211H42.7756V30.6608ZM40.6421 28.4774C40.6017 26.7574 40.3649 25.1063 39.9586 23.5689C41.0015 23.2954 41.9791 22.9802 42.8739 22.6264C43.7559 24.407 44.2842 26.3858 44.3591 28.4774H40.6421Z" fill="white"/>
<path d="M44 54.6055H15C11.9362 54.6031 8.99866 53.406 6.83225 51.2769C4.66585 49.1479 3.44771 46.2609 3.44531 43.25V14.75C3.44771 11.7391 4.66585 8.85213 6.83225 6.72308C8.99866 4.59402 11.9362 3.39689 15 3.39453H44C47.0638 3.39689 50.0013 4.59402 52.1677 6.72308C54.3342 8.85213 55.5523 11.7391 55.5547 14.75V43.25C55.5523 46.2609 54.3342 49.1479 52.1677 51.2769C50.0013 53.406 47.0638 54.6031 44 54.6055ZM15 4.73047C12.2975 4.73518 9.70707 5.79232 7.79612 7.67032C5.88516 9.54833 4.80948 12.0941 4.80469 14.75V43.25C4.80948 45.9059 5.88516 48.4517 7.79612 50.3297C9.70707 52.2077 12.2975 53.2648 15 53.2695H44C46.7025 53.2648 49.2929 52.2077 51.2039 50.3297C53.1148 48.4517 54.1905 45.9059 54.1953 43.25V14.75C54.1905 12.0941 53.1148 9.54833 51.2039 7.67032C49.2929 5.79232 46.7025 4.73518 44 4.73047H15Z" fill="white"/>
</svg>
