<svg width="25" height="25" viewBox="0 0 25 25" fill="none" xmlns="http://www.w3.org/2000/svg">
<g clip-path="url(#clip0_55_623)">
<path fill-rule="evenodd" clip-rule="evenodd" d="M24 12.2853C24 5.89495 18.8515 0.714844 12.5014 0.714844C6.14848 0.716281 1 5.89495 1 12.2867C1 18.0604 5.2056 22.8467 10.7019 23.7148V15.6299H7.78415V12.2867H10.7048V9.73547C10.7048 6.83639 12.4224 5.23522 15.0484 5.23522C16.3075 5.23522 17.6226 5.46088 17.6226 5.46088V8.30677H16.1724C14.7451 8.30677 14.2995 9.19935 14.2995 10.1149V12.2853H17.4875L16.9787 15.6285H14.2981V23.7134C19.7944 22.8453 24 18.059 24 12.2853Z" fill="white"/>
</g>
<defs>
<clipPath id="clip0_55_623">
<rect width="24" height="24" fill="white" transform="translate(0.5 0.714844)"/>
</clipPath>
</defs>
</svg>
