<svg xmlns="http://www.w3.org/2000/svg" width="48" height="48" viewBox="0 0 48 48" fill="none">
  <g clip-path="url(#clip0_2166_949)">
    <path d="M43.8707 9.93543C43.5319 9.76604 43.3179 9.41977 43.3179 9.041V1.09118C43.3179 0.538898 42.8702 0.0911813 42.3179 0.0911813H33.4998C32.9475 0.0911813 32.4998 0.538897 32.4998 1.09118V2.63194C32.4998 3.37533 31.7175 3.85882 31.0526 3.52637L24.447 0.223607C24.1655 0.0828431 23.8341 0.0828431 23.5526 0.223607L0.598196 11.7008C0.259412 11.8702 0.0454102 12.2165 0.0454102 12.5952V18.2501C0.0454102 18.6471 0.463117 18.9052 0.818133 18.7277V18.7277C1.17315 18.5502 1.59086 18.8084 1.59086 19.2053V41.5909C1.59086 42.1432 2.03857 42.5909 2.59086 42.5909H10.8156C11.0808 42.5909 11.3352 42.6963 11.5227 42.8838L13.4583 44.8194C13.8488 45.2099 14.482 45.2099 14.8725 44.8194L15.6089 44.083C15.9317 43.7601 16.4307 43.7 16.8347 43.9126C17.6561 44.3449 18.5104 44.7004 19.3914 44.9762C19.8266 45.1125 20.1362 45.5074 20.1362 45.9635V47C20.1362 47.5523 20.5839 48 21.1362 48H26.8634C27.4157 48 27.8634 47.5523 27.8634 47V45.9628C27.8634 45.5067 28.1731 45.1118 28.6084 44.9755C29.4896 44.6996 30.3436 44.3442 31.165 43.9119C31.569 43.6993 32.0679 43.7594 32.3907 44.0822L33.1272 44.8187C33.5177 45.2092 34.1508 45.2093 34.5414 44.8188L36.477 42.8837C36.6645 42.6963 36.9188 42.5909 37.184 42.5909H45.4088C45.9611 42.5909 46.4088 42.1432 46.4088 41.5909V19.2053C46.4088 18.8084 46.8265 18.5502 47.1815 18.7277V18.7277C47.5365 18.9052 47.9542 18.6471 47.9542 18.2501V12.5952C47.9542 12.2165 47.7402 11.8702 47.4014 11.7008L43.8707 9.93543ZM34.0452 2.40935C34.0452 1.98259 34.3912 1.63663 34.8179 1.63663H40.9997C41.4265 1.63663 41.7724 1.98259 41.7724 2.40935V2.40935C41.7724 2.83611 41.4265 3.18207 40.9997 3.18207H34.8179C34.3912 3.18207 34.0452 2.83611 34.0452 2.40935V2.40935ZM34.0452 4.90995C34.0452 4.8092 34.1269 4.72752 34.2276 4.72752H40.7724C41.3247 4.72752 41.7724 5.17523 41.7724 5.72752V7.26828C41.7724 8.01166 40.9901 8.49516 40.3252 8.16271L34.1461 5.07312C34.0843 5.04222 34.0452 4.97905 34.0452 4.90995V4.90995ZM34.5431 42.634C34.1525 43.0246 33.5192 43.0245 33.1287 42.6338L32.5033 42.0082C32.2457 41.7504 31.843 41.7077 31.537 41.9055V41.9055C30.1151 42.8251 28.5643 43.4695 26.9284 43.8211V43.8211C26.5723 43.8978 26.318 44.2126 26.318 44.5769V45.4546C26.318 46.0068 25.8703 46.4546 25.318 46.4546H22.6816C22.1294 46.4546 21.6816 46.0068 21.6816 45.4546V44.5767C21.6816 44.2126 21.4272 43.8981 21.0712 43.8219V43.8219C19.4353 43.4703 17.8845 42.8258 16.4627 41.9063V41.9063C16.1566 41.7084 15.754 41.7513 15.4964 42.0091L14.8717 42.6343C14.4812 43.0251 13.8478 43.0253 13.4572 42.6346L11.5934 40.7708C11.2027 40.3801 11.2028 39.7467 11.5937 39.3563L12.2189 38.7316C12.4767 38.474 12.5195 38.0713 12.3217 37.7653V37.7653C11.4021 36.3435 10.7577 34.7926 10.4061 33.1568V33.1568C10.3294 32.8002 10.0142 32.5455 9.64953 32.5455H8.77264C8.22035 32.5455 7.77264 32.0978 7.77264 31.5455V28.9092C7.77264 28.3569 8.22035 27.9092 8.77264 27.9092H9.65045C10.0145 27.9092 10.3291 27.6548 10.4053 27.2988V27.2988C10.7569 25.6629 11.4013 24.112 12.3209 22.6902V22.6902C12.5187 22.3842 12.4759 21.9815 12.2181 21.724L11.5929 21.0993C11.2021 20.7088 11.2019 20.0754 11.5926 19.6847L13.4564 17.8209C13.8471 17.4303 14.4805 17.4304 14.8709 17.8212L15.4956 18.4465C15.7532 18.7043 16.1559 18.7471 16.4619 18.5492V18.5492C17.8837 17.6297 19.4346 16.9852 21.0704 16.6336V16.6336C21.427 16.557 21.6816 16.2418 21.6816 15.8771V15.0002C21.6816 14.4479 22.1294 14.0002 22.6816 14.0002H25.318C25.8703 14.0002 26.318 14.4479 26.318 15.0002V15.878C26.318 16.2421 26.5724 16.5567 26.9284 16.6329V16.6329C28.5643 16.9844 30.1151 17.6289 31.537 18.5484V18.5484C31.843 18.7463 32.2457 18.7035 32.5032 18.4457L33.1279 17.8204C33.5184 17.4296 34.1518 17.4295 34.5425 17.8201L36.4063 19.684C36.7969 20.0746 36.7968 20.708 36.406 21.0985L35.7807 21.7232C35.5229 21.9808 35.4801 22.3834 35.678 22.6895V22.6895C36.5975 24.1113 37.242 25.6621 37.5936 27.298V27.298C37.6702 27.6545 37.9854 27.9092 38.3501 27.9092H39.227C39.7793 27.9092 40.227 28.3569 40.227 28.9092V31.5455C40.227 32.0978 39.7793 32.5455 39.227 32.5455H38.3492C37.9851 32.5455 37.6705 32.8 37.5943 33.156V33.156C37.2427 34.7918 36.5983 36.3427 35.6788 37.7645V37.7645C35.4809 38.0705 35.5237 38.4732 35.7815 38.7308L36.4067 39.3555C36.7976 39.746 36.7977 40.3794 36.4071 40.77L34.5431 42.634ZM46.4088 14.9957C46.4088 15.739 45.6266 16.2225 44.9617 15.8902L44.3543 15.5866C43.9726 15.3958 43.5086 15.5505 43.3177 15.9321V15.9321C43.1266 16.3139 43.2815 16.7783 43.6634 16.9692L44.3103 17.2923C44.6492 17.4616 44.8633 17.808 44.8633 18.1869V40.0455C44.8633 40.5978 44.4156 41.0455 43.8633 41.0455H39.2982C38.9355 41.0455 38.7538 40.607 39.0103 40.3505V40.3505C39.1693 40.1915 39.1693 39.9337 39.0103 39.7747L37.8546 38.619C37.5318 38.2962 37.4717 37.7973 37.6843 37.3933C38.1166 36.5718 38.472 35.7176 38.7479 34.8366C38.8842 34.4014 39.2791 34.0918 39.7351 34.0918H40.7724C41.3247 34.0918 41.7724 33.644 41.7724 33.0918V27.3638C41.7724 26.8115 41.3247 26.3638 40.7724 26.3638H39.7352C39.2792 26.3638 38.8842 26.0541 38.748 25.6188C38.4721 24.7376 38.1167 23.8836 37.6843 23.0622C37.4717 22.6582 37.5318 22.1593 37.8546 21.8365L38.5911 21.1C38.9816 20.7095 38.9816 20.0763 38.5911 19.6858L34.5414 15.6361C34.1508 15.2456 33.5177 15.2456 33.1272 15.6361L32.3907 16.3726C32.0679 16.6954 31.569 16.7555 31.165 16.5429C30.3435 16.1106 29.4893 15.7552 28.6082 15.4793C28.1731 15.343 27.8634 14.9481 27.8634 14.4921V13.4547C27.8634 12.9025 27.4157 12.4547 26.8634 12.4547H21.1362C20.5839 12.4547 20.1362 12.9025 20.1362 13.4547V14.492C20.1362 14.948 19.8265 15.343 19.3913 15.4792C18.51 15.7551 17.656 16.1105 16.8346 16.5429C16.4307 16.7555 15.9317 16.6954 15.6089 16.3726L14.8725 15.6361C14.482 15.2456 13.8488 15.2456 13.4583 15.6361L9.40856 19.6858C9.01803 20.0763 9.01803 20.7095 9.40856 21.1L10.145 21.8365C10.4678 22.1593 10.5279 22.6582 10.3153 23.0622C9.88302 23.8837 9.5276 24.7379 9.25172 25.619C9.11546 26.0541 8.72052 26.3638 8.26451 26.3638H7.22719C6.67491 26.3638 6.22719 26.8115 6.22719 27.3638V33.091C6.22719 33.6433 6.67491 34.091 7.22719 34.091H8.26441C8.72046 34.091 9.11543 34.4007 9.25167 34.8359C9.52755 35.7172 9.88298 36.5712 10.3153 37.3925C10.5279 37.7965 10.4678 38.2954 10.145 38.6183L8.98948 39.7738C8.83039 39.9329 8.83034 40.1908 8.98937 40.35V40.35C9.24592 40.6067 9.06408 41.0455 8.70111 41.0455H4.1363C3.58402 41.0455 3.1363 40.5978 3.1363 40.0455V18.1867C3.1363 17.8079 3.3503 17.4616 3.68909 17.2922L23.5526 7.36047C23.8341 7.21971 24.1655 7.21971 24.447 7.36046L40.7328 15.503C41.1146 15.6939 41.5787 15.5392 41.7697 15.1575V15.1575C41.9607 14.7757 41.8059 14.3114 41.4241 14.1204L24.447 5.63264C24.1655 5.49189 23.8341 5.4919 23.5526 5.63266L3.03807 15.8899C2.37317 16.2224 1.59086 15.7389 1.59086 14.9955V13.5503C1.59086 13.1716 1.80486 12.8253 2.14364 12.6559L23.5526 1.95142C23.8341 1.81065 24.1655 1.81065 24.447 1.95142L45.856 12.6559C46.1948 12.8253 46.4088 13.1716 46.4088 13.5503V14.9957Z" fill="white"/>
    <path d="M24 21.7266C19.3134 21.7266 15.5 25.5399 15.5 30.2265C15.5 34.9131 19.3134 38.7265 24 38.7265C28.6865 38.7265 32.4999 34.9131 32.4999 30.2265C32.4999 25.5399 28.6865 21.7266 24 21.7266ZM24 37.181C20.1649 37.181 17.0454 34.0615 17.0454 30.2265C17.0454 26.3915 20.1649 23.272 24 23.272C27.835 23.272 30.9545 26.3915 30.9545 30.2265C30.9545 34.0615 27.835 37.181 24 37.181Z" fill="white"/>
    <path d="M23.9998 19.4087V17.8633C18.4548 17.8633 13.5534 21.5917 12.0806 26.9304L13.5704 27.3407C14.8593 22.6712 19.1479 19.4087 23.9998 19.4087Z" fill="white"/>
    <path d="M11.6362 30.2275H13.1817C13.1817 29.7446 13.2134 29.2593 13.2767 28.7841L11.7452 28.5801C11.6725 29.1225 11.6362 29.6766 11.6362 30.2275Z" fill="white"/>
  </g>
  <defs>
    <clipPath id="clip0_2166_949">
      <rect width="48" height="48" fill="white"/>
    </clipPath>
  </defs>
</svg>