<svg width="25" height="25" viewBox="0 0 25 25" fill="none" xmlns="http://www.w3.org/2000/svg">
<g clip-path="url(#clip0_55_625)">
<path d="M13 1.71484C10.0149 1.71484 9.6395 1.72859 8.46663 1.78084C7.29375 1.83584 6.49487 2.02009 5.795 2.29234C5.06088 2.56847 4.39593 3.0016 3.84663 3.56147C3.2871 4.11105 2.85402 4.77592 2.5775 5.50984C2.30525 6.20834 2.11963 7.00859 2.066 8.17734C2.01375 9.35297 2 9.72697 2 12.7162C2 15.7027 2.01375 16.0767 2.066 17.2496C2.121 18.4211 2.30525 19.22 2.5775 19.9198C2.85938 20.6431 3.23475 21.2563 3.84663 21.8682C4.45713 22.4801 5.07037 22.8568 5.79363 23.1373C6.49487 23.4096 7.29238 23.5952 8.46388 23.6488C9.63813 23.7011 10.0121 23.7148 13 23.7148C15.9879 23.7148 16.3605 23.7011 17.5347 23.6488C18.7049 23.5938 19.5065 23.4096 20.2064 23.1373C20.94 22.8611 21.6045 22.4279 22.1534 21.8682C22.7652 21.2563 23.1406 20.6431 23.4225 19.9198C23.6934 19.22 23.879 18.4211 23.934 17.2496C23.9862 16.0767 24 15.7027 24 12.7148C24 9.72697 23.9862 9.35297 23.934 8.17872C23.879 7.00859 23.6934 6.20834 23.4225 5.50984C23.146 4.7759 22.7129 4.11102 22.1534 3.56147C21.6042 3.0014 20.9392 2.56823 20.205 2.29234C19.5037 2.02009 18.7035 1.83447 17.5334 1.78084C16.3591 1.72859 15.9865 1.71484 12.9973 1.71484H13.0014H13ZM12.0141 3.69759H13.0014C15.9384 3.69759 16.2863 3.70722 17.4454 3.76084C18.5179 3.80897 19.1009 3.98909 19.4886 4.13897C20.0015 4.33834 20.3686 4.57759 20.7536 4.96259C21.1386 5.34759 21.3765 5.71334 21.5759 6.22759C21.7271 6.61397 21.9059 7.19697 21.954 8.26947C22.0076 9.42859 22.0186 9.77647 22.0186 12.7121C22.0186 15.6477 22.0076 15.997 21.954 17.1561C21.9059 18.2286 21.7257 18.8102 21.5759 19.198C21.3995 19.6756 21.118 20.1074 20.7522 20.4616C20.3672 20.8466 20.0015 21.0845 19.4873 21.2838C19.1023 21.4351 18.5192 21.6138 17.4454 21.6633C16.2863 21.7156 15.9384 21.728 13.0014 21.728C10.0644 21.728 9.71513 21.7156 8.556 21.6633C7.4835 21.6138 6.90188 21.4351 6.51412 21.2838C6.03631 21.1077 5.60405 20.8268 5.24913 20.4616C4.88303 20.1069 4.60112 19.6746 4.42412 19.1966C4.27425 18.8102 4.09413 18.2272 4.046 17.1547C3.99375 15.9956 3.98275 15.6477 3.98275 12.7093C3.98275 9.77234 3.99375 9.42584 4.046 8.26672C4.0955 7.19422 4.27425 6.61122 4.4255 6.22347C4.62488 5.71059 4.86412 5.34347 5.24913 4.95847C5.63412 4.57347 5.99988 4.33559 6.51412 4.13622C6.90188 3.98497 7.4835 3.80622 8.556 3.75672C9.57075 3.70997 9.964 3.69622 12.0141 3.69484V3.69759ZM18.8726 5.52359C18.6993 5.52359 18.5276 5.55774 18.3675 5.62407C18.2073 5.69041 18.0618 5.78764 17.9392 5.91021C17.8167 6.03279 17.7194 6.1783 17.6531 6.33845C17.5868 6.4986 17.5526 6.67025 17.5526 6.84359C17.5526 7.01694 17.5868 7.18859 17.6531 7.34874C17.7194 7.50889 17.8167 7.6544 17.9392 7.77697C18.0618 7.89955 18.2073 7.99678 18.3675 8.06311C18.5276 8.12945 18.6993 8.16359 18.8726 8.16359C19.2227 8.16359 19.5585 8.02452 19.806 7.77697C20.0536 7.52943 20.1926 7.19368 20.1926 6.84359C20.1926 6.49351 20.0536 6.15776 19.806 5.91021C19.5585 5.66266 19.2227 5.52359 18.8726 5.52359ZM13.0014 7.06634C12.2521 7.05465 11.508 7.19214 10.8123 7.47079C10.1167 7.74944 9.48346 8.16369 8.94946 8.68943C8.41546 9.21516 7.99138 9.84187 7.70191 10.5331C7.41244 11.2243 7.26336 11.9662 7.26336 12.7155C7.26336 13.4649 7.41244 14.2068 7.70191 14.898C7.99138 15.5892 8.41546 16.2159 8.94946 16.7416C9.48346 17.2674 10.1167 17.6816 10.8123 17.9603C11.508 18.2389 12.2521 18.3764 13.0014 18.3647C14.4844 18.3416 15.8988 17.7362 16.9393 16.6793C17.9799 15.6224 18.5631 14.1987 18.5631 12.7155C18.5631 11.2324 17.9799 9.80866 16.9393 8.75175C15.8988 7.69484 14.4844 7.08948 13.0014 7.06634ZM13.0014 9.04772C13.974 9.04772 14.9067 9.43408 15.5944 10.1218C16.2821 10.8095 16.6685 11.7423 16.6685 12.7148C16.6685 13.6874 16.2821 14.6202 15.5944 15.3079C14.9067 15.9956 13.974 16.382 13.0014 16.382C12.0288 16.382 11.096 15.9956 10.4083 15.3079C9.72061 14.6202 9.33425 13.6874 9.33425 12.7148C9.33425 11.7423 9.72061 10.8095 10.4083 10.1218C11.096 9.43408 12.0288 9.04772 13.0014 9.04772Z" fill="white"/>
</g>
<defs>
<clipPath id="clip0_55_625">
<rect width="24" height="24" fill="white" transform="translate(0.5 0.714844)"/>
</clipPath>
</defs>
</svg>
