<svg width="75" height="16" viewBox="0 0 75 16" fill="none" xmlns="http://www.w3.org/2000/svg">
<path fill-rule="evenodd" clip-rule="evenodd" d="M1.66883 0.960925V1.92185H4.03696H6.4051L6.40424 4.99147C6.40381 6.67982 6.35375 8.37339 6.29294 8.7551C6.11533 9.87126 5.64363 10.3389 4.60101 10.4327C3.43739 10.5373 2.68196 9.96778 2.39498 8.76919C2.28131 8.29481 2.22911 8.2189 2.04579 8.2615C1.92728 8.28905 1.45537 8.34489 0.997138 8.38557C0.0593559 8.46895 0.124371 8.35364 0.397568 9.4491C0.666782 10.5286 1.53632 11.5443 2.62469 12.0505C3.1643 12.3014 3.35752 12.3318 4.41371 12.3304C5.48271 12.3291 5.66183 12.2997 6.2572 12.0281C6.99584 11.6913 7.56409 11.1645 7.91145 10.4945C8.41866 9.51647 8.44773 9.19029 8.44902 4.45762L8.45031 0H5.05957H1.66883V0.960925ZM13.5898 3.52574C12.4199 3.81882 11.4709 4.637 10.89 5.8531C10.5638 6.53621 10.5494 6.6227 10.5506 7.90094C10.5517 9.04476 10.5874 9.32332 10.8005 9.84916C11.2753 11.0215 12.4273 11.9831 13.7125 12.2797C14.4797 12.4568 15.8802 12.3624 16.6111 12.0843C17.2078 11.8574 18.3902 11.0423 18.3328 10.8976C18.3146 10.8517 18.015 10.5684 17.6673 10.268L17.0349 9.72179L16.5909 10.034C16.0233 10.4328 15.2714 10.6151 14.514 10.5376C13.7139 10.4557 13.169 10.0762 12.8736 9.39486C12.4756 8.47728 12.2659 8.54156 15.6575 8.54156H18.6666L18.7352 8.17854C18.8393 7.62846 18.5978 6.3247 18.2577 5.60038C17.8401 4.71067 17.3784 4.2269 16.571 3.8327C15.9903 3.54912 15.7366 3.49125 14.9387 3.46072C14.4191 3.44086 13.8121 3.47011 13.5898 3.52574ZM24.2738 3.5882C23.7624 3.77227 22.8744 4.35235 22.8744 4.50247C22.8744 4.55115 22.826 4.59109 22.7668 4.59109C22.7076 4.59109 22.6591 4.37488 22.6591 4.11062V3.63016H21.6365H20.6139V7.95432V12.2785H21.6365H22.6591V9.68207C22.6591 6.75093 22.7506 6.19124 23.3055 5.72807C24.0275 5.12557 25.3379 5.13016 25.9058 5.73715C26.381 6.24516 26.4266 6.57625 26.4266 9.51839V12.2785H27.4576H28.4886L28.4485 9.1021C28.41 6.05906 28.3977 5.89976 28.1546 5.30815C27.8709 4.61735 27.2743 3.96307 26.6681 3.67767C26.1054 3.41278 24.8875 3.36729 24.2738 3.5882ZM34.4687 3.60027C34.1852 3.69401 33.7418 3.95527 33.4834 4.18088C33.225 4.40648 32.9847 4.59109 32.9494 4.59109C32.914 4.59109 32.8852 4.37488 32.8852 4.11062V3.63016H31.8626H30.84V7.95432V12.2785H31.8626H32.8852V9.77464C32.8852 6.87745 32.9667 6.3325 33.4753 5.8279C34.1317 5.17682 35.3574 5.07977 36.0129 5.62696C36.5874 6.10636 36.5952 6.15077 36.6527 9.28894L36.7065 12.2251L37.7022 12.2559L38.6979 12.2865V9.405C38.6979 5.69156 38.573 5.09226 37.6044 4.16006C36.873 3.45591 35.5951 3.22785 34.4687 3.60027ZM43.1978 3.61575C41.6534 4.1228 40.69 5.35278 40.403 7.18398C40.1739 8.64598 40.6594 10.2737 41.6042 11.2108C43.1382 12.7324 46.0997 12.785 47.7637 11.3202C48.2868 10.8598 48.2891 10.8674 47.396 10.1258L46.8689 9.68794L46.6315 9.90308C45.7577 10.6952 44.0705 10.7841 43.2298 10.0825C42.9774 9.8718 42.4654 8.87276 42.4654 8.59088C42.4654 8.56376 43.8459 8.54156 45.5332 8.54156H48.601V7.76321C48.601 5.88182 47.8148 4.47492 46.372 3.77483C45.5821 3.39153 44.1059 3.31754 43.1978 3.61575ZM52.4223 3.48271C51.9353 3.60379 51.3255 3.8769 51.0071 4.1166C50.5115 4.48965 50.108 5.36057 50.108 6.05682C50.108 6.80976 50.3052 7.24377 50.8624 7.71676C51.307 8.0943 51.6841 8.24666 53.413 8.74719C54.5409 9.0738 54.8213 9.59398 54.2253 10.2539C53.4842 11.0746 51.9051 10.8133 51.3425 9.77699C51.2286 9.56729 51.097 9.39571 51.0499 9.39571C50.8424 9.39571 49.5698 10.0344 49.5698 10.1385C49.5698 10.3518 50.0786 11.0563 50.494 11.418C52.1296 12.8425 55.0075 12.6351 56.0812 11.0153C56.7252 10.0436 56.6515 8.75307 55.906 7.95091C55.4543 7.46479 54.7503 7.12366 53.3661 6.72017C52.1224 6.35769 51.7661 5.91791 52.243 5.33388C52.3935 5.14938 52.5847 5.0802 53.0497 5.04197C53.798 4.98037 54.1868 5.12824 54.6689 5.65761L55.034 6.05842L55.8013 5.63636L56.5687 5.21419L56.3539 4.91513C56.0193 4.44898 55.3982 3.95026 54.8553 3.71173C54.3677 3.49755 52.9135 3.36068 52.4223 3.48271ZM60.3054 3.52659C58.4898 3.97866 57.5375 5.83356 58.3994 7.23929C58.7747 7.85161 59.4196 8.17331 61.3127 8.69285C62.1454 8.92134 62.4869 9.20705 62.4869 9.67523C62.4869 10.3943 61.5772 10.8939 60.6459 10.6863C60.098 10.5643 59.7201 10.3024 59.3857 9.81297C59.2489 9.61288 59.1004 9.43607 59.0559 9.42016C59.0112 9.40415 58.6522 9.53611 58.2582 9.71335C57.4559 10.0741 57.4544 10.081 57.9962 10.8739C58.3848 11.4427 59.3909 12.1053 60.134 12.2821C60.4644 12.3607 61.0062 12.3898 61.4784 12.3545C63.4344 12.2077 64.6562 10.96 64.5014 9.26705C64.3929 8.07988 63.6693 7.42859 61.841 6.872C60.8363 6.56611 60.1187 6.24132 60.1187 6.09237C60.1187 6.03973 60.0898 5.92165 60.0543 5.83004C60.0145 5.72711 60.1143 5.53995 60.3151 5.34082C60.5932 5.06493 60.7211 5.01816 61.1975 5.01816C61.8786 5.01816 62.4122 5.25551 62.7663 5.71601L63.0335 6.06354L63.7478 5.67437C64.1407 5.4603 64.4781 5.2364 64.4976 5.17693C64.5657 4.96894 63.5274 4.02916 62.9296 3.75764C62.2636 3.45527 61.0288 3.34647 60.3054 3.52659ZM65.5108 4.1907C65.6328 4.49894 66.383 6.34958 67.1776 8.30314C67.9723 10.2566 68.6225 11.9437 68.6225 12.0519C68.6225 12.1603 68.2834 13.0722 67.869 14.0785C67.4546 15.0848 67.1155 15.9341 67.1155 15.9656C67.1155 15.9971 67.6095 16.0092 68.2133 15.9925L69.3112 15.962L71.7655 9.87746C73.1154 6.53087 74.2199 3.75455 74.2199 3.70778C74.2199 3.66102 73.7277 3.63635 73.1262 3.65312L72.0324 3.68355L70.9424 6.61971C70.3429 8.23459 69.8058 9.53761 69.7488 9.51529C69.6917 9.49298 69.1671 8.15964 68.5828 6.55244L67.5204 3.63016H66.4045H65.2887L65.5108 4.1907ZM15.5901 5.27057C16.0381 5.45624 16.4839 5.98058 16.6264 6.48955C16.8224 7.18953 16.9271 7.15355 14.6936 7.15355C12.4557 7.15355 12.5413 7.18249 12.7709 6.50215C12.9488 5.97514 13.3797 5.44492 13.7656 5.27836C14.2024 5.08981 15.1442 5.08575 15.5901 5.27057ZM45.7913 5.43755C46.1377 5.68216 46.4525 6.23683 46.5986 6.85994L46.6675 7.15355H44.5664C43.4109 7.15355 42.4654 7.13134 42.4654 7.10422C42.4654 6.85289 42.9591 5.85235 43.1923 5.63123C43.623 5.22263 43.9411 5.12397 44.7282 5.15494C45.2659 5.17608 45.515 5.24227 45.7913 5.43755Z" fill="white"/>
</svg>
