<svg width="21" height="30" viewBox="0 0 21 30" fill="none" xmlns="http://www.w3.org/2000/svg">
<path fill-rule="evenodd" clip-rule="evenodd" d="M8.90011 1.41265L6.47056 2.82377L6.40173 5.06315C6.33669 7.17714 6.34266 7.30983 6.50839 7.43273C6.67753 7.55822 6.68625 7.48156 6.74636 5.35664C6.78058 4.14316 6.83225 3.12646 6.86107 3.0973C6.8899 3.06813 7.90709 2.46993 9.12149 1.76802L11.3296 0.491704L11.377 12.891L11.4244 25.2902L12.5858 24.6776L13.7472 24.0651V16.3089V8.55276L15.0034 7.8471L16.2596 7.14154L16.2851 5.03044L16.3105 2.91933L13.8592 1.4589C12.5111 0.655669 11.3903 -0.000862628 11.3687 8.50769e-07C11.3472 0.000864329 10.2363 0.636481 8.90011 1.41265ZM2.3465 8.59823L0 9.99803V11.8109C0 13.5999 0.00246501 13.6222 0.189616 13.504C0.367097 13.3919 0.379327 13.2798 0.380086 11.7522L0.380844 10.1204L2.58437 8.85027L4.78781 7.58019L4.81322 9.87321L4.83853 12.1663L6.00752 12.8206L7.1765 13.4749L7.23813 15.5394C7.27207 16.6748 7.29985 19.0148 7.30004 20.7391L7.30023 23.8744L8.43309 24.5528C9.05617 24.9259 9.58946 25.2312 9.61819 25.2312C9.64692 25.2312 9.67043 21.8445 9.67043 17.7052V10.1792L7.21433 8.6866C5.86341 7.86572 4.74353 7.19508 4.72562 7.19623C4.7077 7.19738 3.63703 7.8283 2.3465 8.59823ZM15.9111 8.11075L14.4249 9.02047L14.4781 16.2384C14.5073 20.2083 14.5436 23.4711 14.5587 23.4891C14.5738 23.5072 14.6587 23.4809 14.7471 23.4308C14.8964 23.3462 14.9068 22.831 14.891 16.2887L14.8741 9.23769L16.1646 8.44501C16.8743 8.00905 17.4683 7.66798 17.4846 7.68707C17.5008 7.70616 17.5305 11.2356 17.5505 15.5302L17.5869 23.3386L14.1264 25.3401C12.2231 26.4411 10.6273 27.3418 10.5803 27.3419C10.5332 27.3419 8.93984 26.4461 7.0396 25.3512L3.5846 23.3604L3.64698 18.1334C3.6814 15.2586 3.72558 12.8902 3.74539 12.8702C3.77137 12.8439 6.02856 14.1021 6.18291 14.2291C6.19419 14.2383 6.22614 16.2698 6.25402 18.7435L6.30474 23.2412L6.53512 23.3959C6.76077 23.5474 6.76418 23.5457 6.70227 23.3115C6.66757 23.1801 6.63799 21.0218 6.63647 18.5153L6.63382 13.958L5.12741 13.1165L3.6211 12.275L1.83425 13.3622L0.0474041 14.4495L0.0264514 19.1927L0.00549892 23.936L5.22886 26.9582C8.10164 28.6204 10.5003 29.9892 10.5591 29.9999C10.6178 30.0106 12.9911 28.6706 15.833 27.022L21 24.0245V16.6488V9.27309L19.2584 8.23356C18.3005 7.66184 17.4899 7.19566 17.457 7.19757C17.4242 7.19949 16.7285 7.61041 15.9111 8.11075Z" fill="white"/>
</svg>
