<svg width="1440" height="548" viewBox="0 0 1440 548" fill="none" xmlns="http://www.w3.org/2000/svg">
<path fill-rule="evenodd" clip-rule="evenodd" d="M0 69.6513H48V0H47V68.2002H0V69.6513Z" fill="#1E3550"/>
<path fill-rule="evenodd" clip-rule="evenodd" d="M48 69.6513H96V0H95V68.2002H48V69.6513Z" fill="#1E3550"/>
<path fill-rule="evenodd" clip-rule="evenodd" d="M96 69.6513H144V0H143V68.2002H96V69.6513Z" fill="#1E3550"/>
<path fill-rule="evenodd" clip-rule="evenodd" d="M144 69.6513H192V0H191V68.2002H144V69.6513Z" fill="#1E3550"/>
<path fill-rule="evenodd" clip-rule="evenodd" d="M192 69.6513H240V0H239V68.2002H192V69.6513Z" fill="#1E3550"/>
<path fill-rule="evenodd" clip-rule="evenodd" d="M240 69.6513H288V0H287V68.2002H240V69.6513Z" fill="#1E3550"/>
<path d="M288 0H336V69.6513H288V0Z" fill="#1E3550"/>
<path fill-rule="evenodd" clip-rule="evenodd" d="M288 69.6513H336V0H335V68.2002H288V69.6513Z" fill="#1E3550"/>
<path fill-rule="evenodd" clip-rule="evenodd" d="M336 69.6513H384V0H383V68.2002H336V69.6513Z" fill="#1E3550"/>
<path fill-rule="evenodd" clip-rule="evenodd" d="M384 69.6513H432V0H431V68.2002H384V69.6513Z" fill="#1E3550"/>
<path fill-rule="evenodd" clip-rule="evenodd" d="M432 69.6513H480V0H479V68.2002H432V69.6513Z" fill="#1E3550"/>
<path fill-rule="evenodd" clip-rule="evenodd" d="M480 69.6513H528V0H527V68.2002H480V69.6513Z" fill="#1E3550"/>
<path fill-rule="evenodd" clip-rule="evenodd" d="M528 69.6513H576V0H575V68.2002H528V69.6513Z" fill="#1E3550"/>
<path d="M576 0H624V69.6513H576V0Z" fill="#1E3550"/>
<path fill-rule="evenodd" clip-rule="evenodd" d="M576 69.6513H624V0H623V68.2002H576V69.6513Z" fill="#1E3550"/>
<path fill-rule="evenodd" clip-rule="evenodd" d="M624 69.6513H672V0H671V68.2002H624V69.6513Z" fill="#1E3550"/>
<path fill-rule="evenodd" clip-rule="evenodd" d="M672 69.6513H720V0H719V68.2002H672V69.6513Z" fill="#1E3550"/>
<path fill-rule="evenodd" clip-rule="evenodd" d="M720 69.6513H768V0H767V68.2002H720V69.6513Z" fill="#1E3550"/>
<path fill-rule="evenodd" clip-rule="evenodd" d="M768 69.6513H816V0H815V68.2002H768V69.6513Z" fill="#1E3550"/>
<path fill-rule="evenodd" clip-rule="evenodd" d="M816 69.6513H864V0H863V68.2002H816V69.6513Z" fill="#1E3550"/>
<path fill-rule="evenodd" clip-rule="evenodd" d="M864 69.6513H912V0H911V68.2002H864V69.6513Z" fill="#1E3550"/>
<path fill-rule="evenodd" clip-rule="evenodd" d="M912 69.6513H960V0H959V68.2002H912V69.6513Z" fill="#1E3550"/>
<path fill-rule="evenodd" clip-rule="evenodd" d="M960 69.6513H1008V0H1007V68.2002H960V69.6513Z" fill="#1E3550"/>
<path fill-rule="evenodd" clip-rule="evenodd" d="M1008 69.6513H1056V0H1055V68.2002H1008V69.6513Z" fill="#1E3550"/>
<path d="M1056 0H1104V69.6513H1056V0Z" fill="#1E3550"/>
<path fill-rule="evenodd" clip-rule="evenodd" d="M1056 69.6513H1104V0H1103V68.2002H1056V69.6513Z" fill="#1E3550"/>
<path fill-rule="evenodd" clip-rule="evenodd" d="M1104 69.6513H1152V0H1151V68.2002H1104V69.6513Z" fill="#1E3550"/>
<path fill-rule="evenodd" clip-rule="evenodd" d="M1152 69.6513H1200V0H1199V68.2002H1152V69.6513Z" fill="#1E3550"/>
<path fill-rule="evenodd" clip-rule="evenodd" d="M1200 69.6513H1248V0H1247V68.2002H1200V69.6513Z" fill="#1E3550"/>
<path fill-rule="evenodd" clip-rule="evenodd" d="M1248 69.6513H1296V0H1295V68.2002H1248V69.6513Z" fill="#1E3550"/>
<path fill-rule="evenodd" clip-rule="evenodd" d="M1296 69.6513H1344V0H1343V68.2002H1296V69.6513Z" fill="#1E3550"/>
<path fill-rule="evenodd" clip-rule="evenodd" d="M1344 69.6513H1392V0H1391V68.2002H1344V69.6513Z" fill="#1E3550"/>
<path fill-rule="evenodd" clip-rule="evenodd" d="M1392 69.6513H1440V0H1439V68.2002H1392V69.6513Z" fill="#1E3550"/>
<path fill-rule="evenodd" clip-rule="evenodd" d="M0 139.303H48V69.6513L47 69.6513V137.851H0V139.303Z" fill="#1E3550"/>
<path fill-rule="evenodd" clip-rule="evenodd" d="M48 139.303H96V69.6513L95 69.6513V137.851H48V139.303Z" fill="#1E3550"/>
<path fill-rule="evenodd" clip-rule="evenodd" d="M96 139.303H144V69.6513L143 69.6513V137.851H96V139.303Z" fill="#1E3550"/>
<path fill-rule="evenodd" clip-rule="evenodd" d="M144 139.303H192V69.6513L191 69.6513V137.851H144V139.303Z" fill="#1E3550"/>
<path d="M192 69.6513H240V139.303H192V69.6513Z" fill="#1E3550"/>
<path fill-rule="evenodd" clip-rule="evenodd" d="M192 139.303H240V69.6513L239 69.6513V137.851H192V139.303Z" fill="#1E3550"/>
<path fill-rule="evenodd" clip-rule="evenodd" d="M240 139.303H288V69.6513L287 69.6513V137.851H240V139.303Z" fill="#1E3550"/>
<path fill-rule="evenodd" clip-rule="evenodd" d="M288 139.303H336V69.6513L335 69.6513V137.851H288V139.303Z" fill="#1E3550"/>
<path fill-rule="evenodd" clip-rule="evenodd" d="M336 139.303H384V69.6513L383 69.6513V137.851H336V139.303Z" fill="#1E3550"/>
<path d="M384 69.6513H432V139.303H384V69.6513Z" fill="#1E3550"/>
<path fill-rule="evenodd" clip-rule="evenodd" d="M384 139.303H432V69.6513L431 69.6513V137.851H384V139.303Z" fill="#1E3550"/>
<path fill-rule="evenodd" clip-rule="evenodd" d="M432 139.303H480V69.6513L479 69.6513V137.851H432V139.303Z" fill="#1E3550"/>
<path fill-rule="evenodd" clip-rule="evenodd" d="M480 139.303H528V69.6513L527 69.6513V137.851H480V139.303Z" fill="#1E3550"/>
<path fill-rule="evenodd" clip-rule="evenodd" d="M528 139.303H576V69.6513L575 69.6513V137.851H528V139.303Z" fill="#1E3550"/>
<path fill-rule="evenodd" clip-rule="evenodd" d="M576 139.303H624V69.6513L623 69.6513V137.851H576V139.303Z" fill="#1E3550"/>
<path fill-rule="evenodd" clip-rule="evenodd" d="M624 139.303H672V69.6513L671 69.6513V137.851H624V139.303Z" fill="#1E3550"/>
<path fill-rule="evenodd" clip-rule="evenodd" d="M672 139.303H720V69.6513L719 69.6513V137.851H672V139.303Z" fill="#1E3550"/>
<path fill-rule="evenodd" clip-rule="evenodd" d="M720 139.303H768V69.6513L767 69.6513V137.851H720V139.303Z" fill="#1E3550"/>
<path fill-rule="evenodd" clip-rule="evenodd" d="M768 139.303H816V69.6513L815 69.6513V137.851H768V139.303Z" fill="#1E3550"/>
<path d="M816 69.6513H864V139.303H816V69.6513Z" fill="#1E3550"/>
<path fill-rule="evenodd" clip-rule="evenodd" d="M816 139.303H864V69.6513L863 69.6513V137.851H816V139.303Z" fill="#1E3550"/>
<path fill-rule="evenodd" clip-rule="evenodd" d="M864 139.303H912V69.6513L911 69.6513V137.851H864V139.303Z" fill="#1E3550"/>
<path fill-rule="evenodd" clip-rule="evenodd" d="M912 139.303H960V69.6513L959 69.6513V137.851H912V139.303Z" fill="#1E3550"/>
<path fill-rule="evenodd" clip-rule="evenodd" d="M960 139.303H1008V69.6513L1007 69.6513V137.851H960V139.303Z" fill="#1E3550"/>
<path fill-rule="evenodd" clip-rule="evenodd" d="M1008 139.303H1056V69.6513L1055 69.6513V137.851H1008V139.303Z" fill="#1E3550"/>
<path fill-rule="evenodd" clip-rule="evenodd" d="M1056 139.303H1104V69.6513L1103 69.6513V137.851H1056V139.303Z" fill="#1E3550"/>
<path fill-rule="evenodd" clip-rule="evenodd" d="M1104 139.303H1152V69.6513L1151 69.6513V137.851H1104V139.303Z" fill="#1E3550"/>
<path fill-rule="evenodd" clip-rule="evenodd" d="M1152 139.303H1200V69.6513L1199 69.6513V137.851H1152V139.303Z" fill="#1E3550"/>
<path fill-rule="evenodd" clip-rule="evenodd" d="M1200 139.303H1248V69.6513L1247 69.6513V137.851H1200V139.303Z" fill="#1E3550"/>
<path fill-rule="evenodd" clip-rule="evenodd" d="M1248 139.303H1296V69.6513L1295 69.6513V137.851H1248V139.303Z" fill="#1E3550"/>
<path fill-rule="evenodd" clip-rule="evenodd" d="M1296 139.303H1344V69.6513L1343 69.6513V137.851H1296V139.303Z" fill="#1E3550"/>
<path d="M1344 69.6513H1392V139.303H1344V69.6513Z" fill="#1E3550"/>
<path fill-rule="evenodd" clip-rule="evenodd" d="M1344 139.303H1392V69.6513L1391 69.6513V137.851H1344V139.303Z" fill="#1E3550"/>
<path fill-rule="evenodd" clip-rule="evenodd" d="M1392 139.303H1440V69.6513L1439 69.6513V137.851H1392V139.303Z" fill="#1E3550"/>
<path fill-rule="evenodd" clip-rule="evenodd" d="M0 199.744H48V139.303H47V198.484H0V199.744Z" fill="#1E3550"/>
<path d="M48 139.303H96V199.744H48V139.303Z" fill="#1E3550"/>
<path fill-rule="evenodd" clip-rule="evenodd" d="M48 199.744H96V139.303H95V198.484H48V199.744Z" fill="#1E3550"/>
<path fill-rule="evenodd" clip-rule="evenodd" d="M96 199.744H144V139.303H143V198.484H96V199.744Z" fill="#1E3550"/>
<path fill-rule="evenodd" clip-rule="evenodd" d="M144 199.744H192V139.303H191V198.484H144V199.744Z" fill="#1E3550"/>
<path fill-rule="evenodd" clip-rule="evenodd" d="M192 199.744H240V139.303H239V198.484H192V199.744Z" fill="#1E3550"/>
<path fill-rule="evenodd" clip-rule="evenodd" d="M240 199.744H288V139.303H287V198.484H240V199.744Z" fill="#1E3550"/>
<path fill-rule="evenodd" clip-rule="evenodd" d="M288 199.744H336V139.303H335V198.484H288V199.744Z" fill="#1E3550"/>
<path fill-rule="evenodd" clip-rule="evenodd" d="M336 199.744H384V139.303H383V198.484H336V199.744Z" fill="#1E3550"/>
<path fill-rule="evenodd" clip-rule="evenodd" d="M384 199.744H432V139.303H431V198.484H384V199.744Z" fill="#1E3550"/>
<path fill-rule="evenodd" clip-rule="evenodd" d="M432 199.744H480V139.303H479V198.484H432V199.744Z" fill="#1E3550"/>
<path fill-rule="evenodd" clip-rule="evenodd" d="M480 199.744H528V139.303H527V198.484H480V199.744Z" fill="#1E3550"/>
<path fill-rule="evenodd" clip-rule="evenodd" d="M528 199.744H576V139.303H575V198.484H528V199.744Z" fill="#1E3550"/>
<path fill-rule="evenodd" clip-rule="evenodd" d="M576 199.744H624V139.303H623V198.484H576V199.744Z" fill="#1E3550"/>
<path d="M624 139.303H672V199.744H624V139.303Z" fill="#1E3550"/>
<path fill-rule="evenodd" clip-rule="evenodd" d="M624 199.744H672V139.303H671V198.484H624V199.744Z" fill="#1E3550"/>
<path fill-rule="evenodd" clip-rule="evenodd" d="M672 199.744H720V139.303H719V198.484H672V199.744Z" fill="#1E3550"/>
<path fill-rule="evenodd" clip-rule="evenodd" d="M720 199.744H768V139.303H767V198.484H720V199.744Z" fill="#1E3550"/>
<path fill-rule="evenodd" clip-rule="evenodd" d="M768 199.744H816V139.303H815V198.484H768V199.744Z" fill="#1E3550"/>
<path fill-rule="evenodd" clip-rule="evenodd" d="M816 199.744H864V139.303H863V198.484H816V199.744Z" fill="#1E3550"/>
<path fill-rule="evenodd" clip-rule="evenodd" d="M864 199.744H912V139.303H911V198.484H864V199.744Z" fill="#1E3550"/>
<path fill-rule="evenodd" clip-rule="evenodd" d="M912 199.744H960V139.303H959V198.484H912V199.744Z" fill="#1E3550"/>
<path fill-rule="evenodd" clip-rule="evenodd" d="M960 199.744H1008V139.303H1007V198.484H960V199.744Z" fill="#1E3550"/>
<path fill-rule="evenodd" clip-rule="evenodd" d="M1008 199.744H1056V139.303H1055V198.484H1008V199.744Z" fill="#1E3550"/>
<path d="M1056 139.303H1104V199.744H1056V139.303Z" fill="#1E3550"/>
<path fill-rule="evenodd" clip-rule="evenodd" d="M1056 199.744H1104V139.303H1103V198.484H1056V199.744Z" fill="#1E3550"/>
<path fill-rule="evenodd" clip-rule="evenodd" d="M1104 199.744H1152V139.303H1151V198.484H1104V199.744Z" fill="#1E3550"/>
<path fill-rule="evenodd" clip-rule="evenodd" d="M1152 199.744H1200V139.303H1199V198.484H1152V199.744Z" fill="#1E3550"/>
<path fill-rule="evenodd" clip-rule="evenodd" d="M1200 199.744H1248V139.303H1247V198.484H1200V199.744Z" fill="#1E3550"/>
<path fill-rule="evenodd" clip-rule="evenodd" d="M1248 199.744H1296V139.303H1295V198.484H1248V199.744Z" fill="#1E3550"/>
<path fill-rule="evenodd" clip-rule="evenodd" d="M1296 199.744H1344V139.303H1343V198.484H1296V199.744Z" fill="#1E3550"/>
<path fill-rule="evenodd" clip-rule="evenodd" d="M1344 199.744H1392V139.303H1391V198.484H1344V199.744Z" fill="#1E3550"/>
<path fill-rule="evenodd" clip-rule="evenodd" d="M1392 199.744H1440V139.303H1439V198.484H1392V199.744Z" fill="#1E3550"/>
<path fill-rule="evenodd" clip-rule="evenodd" d="M0 269.395H48V199.744H47V267.944H0V269.395Z" fill="#1E3550"/>
<path fill-rule="evenodd" clip-rule="evenodd" d="M48 269.395H96V199.744H95V267.944H48V269.395Z" fill="#1E3550"/>
<path fill-rule="evenodd" clip-rule="evenodd" d="M96 269.395H144V199.744H143V267.944H96V269.395Z" fill="#1E3550"/>
<path d="M144 199.744H192V269.395H144V199.744Z" fill="#1E3550"/>
<path fill-rule="evenodd" clip-rule="evenodd" d="M144 269.395H192V199.744H191V267.944H144V269.395Z" fill="#1E3550"/>
<path fill-rule="evenodd" clip-rule="evenodd" d="M192 269.395H240V199.744H239V267.944H192V269.395Z" fill="#1E3550"/>
<path fill-rule="evenodd" clip-rule="evenodd" d="M240 269.395H288V199.744H287V267.944H240V269.395Z" fill="#1E3550"/>
<path fill-rule="evenodd" clip-rule="evenodd" d="M288 269.395H336V199.744H335V267.944H288V269.395Z" fill="#1E3550"/>
<path fill-rule="evenodd" clip-rule="evenodd" d="M336 269.395H384V199.744H383V267.944H336V269.395Z" fill="#1E3550"/>
<path fill-rule="evenodd" clip-rule="evenodd" d="M384 269.395H432V199.744H431V267.944H384V269.395Z" fill="#1E3550"/>
<path fill-rule="evenodd" clip-rule="evenodd" d="M432 269.395H480V199.744H479V267.944H432V269.395Z" fill="#1E3550"/>
<path fill-rule="evenodd" clip-rule="evenodd" d="M480 269.395H528V199.744H527V267.944H480V269.395Z" fill="#1E3550"/>
<path d="M528 199.744H576V269.395H528V199.744Z" fill="#1E3550"/>
<path fill-rule="evenodd" clip-rule="evenodd" d="M528 269.395H576V199.744H575V267.944H528V269.395Z" fill="#1E3550"/>
<path fill-rule="evenodd" clip-rule="evenodd" d="M576 269.395H624V199.744H623V267.944H576V269.395Z" fill="#1E3550"/>
<path fill-rule="evenodd" clip-rule="evenodd" d="M624 269.395H672V199.744H671V267.944H624V269.395Z" fill="#1E3550"/>
<path fill-rule="evenodd" clip-rule="evenodd" d="M672 269.395H720V199.744H719V267.944H672V269.395Z" fill="#1E3550"/>
<path fill-rule="evenodd" clip-rule="evenodd" d="M720 269.395H768V199.744H767V267.944H720V269.395Z" fill="#1E3550"/>
<path fill-rule="evenodd" clip-rule="evenodd" d="M768 269.395H816V199.744H815V267.944H768V269.395Z" fill="#1E3550"/>
<path fill-rule="evenodd" clip-rule="evenodd" d="M816 269.395H864V199.744H863V267.944H816V269.395Z" fill="#1E3550"/>
<path fill-rule="evenodd" clip-rule="evenodd" d="M864 269.395H912V199.744H911V267.944H864V269.395Z" fill="#1E3550"/>
<path fill-rule="evenodd" clip-rule="evenodd" d="M912 269.395H960V199.744H959V267.944H912V269.395Z" fill="#1E3550"/>
<path fill-rule="evenodd" clip-rule="evenodd" d="M960 269.395H1008V199.744H1007V267.944H960V269.395Z" fill="#1E3550"/>
<path d="M1008 199.744H1056V269.395H1008V199.744Z" fill="#1E3550"/>
<path fill-rule="evenodd" clip-rule="evenodd" d="M1008 269.395H1056V199.744H1055V267.944H1008V269.395Z" fill="#1E3550"/>
<path fill-rule="evenodd" clip-rule="evenodd" d="M1056 269.395H1104V199.744H1103V267.944H1056V269.395Z" fill="#1E3550"/>
<path fill-rule="evenodd" clip-rule="evenodd" d="M1104 269.395H1152V199.744H1151V267.944H1104V269.395Z" fill="#1E3550"/>
<path fill-rule="evenodd" clip-rule="evenodd" d="M1152 269.395H1200V199.744H1199V267.944H1152V269.395Z" fill="#1E3550"/>
<path fill-rule="evenodd" clip-rule="evenodd" d="M1200 269.395H1248V199.744H1247V267.944H1200V269.395Z" fill="#1E3550"/>
<path fill-rule="evenodd" clip-rule="evenodd" d="M1248 269.395H1296V199.744H1295V267.944H1248V269.395Z" fill="#1E3550"/>
<path fill-rule="evenodd" clip-rule="evenodd" d="M1296 269.395H1344V199.744H1343V267.944H1296V269.395Z" fill="#1E3550"/>
<path fill-rule="evenodd" clip-rule="evenodd" d="M1344 269.395H1392V199.744H1391V267.944H1344V269.395Z" fill="#1E3550"/>
<path fill-rule="evenodd" clip-rule="evenodd" d="M1392 269.395H1440V199.744H1439V267.944H1392V269.395Z" fill="#1E3550"/>
<path fill-rule="evenodd" clip-rule="evenodd" d="M0 339.046H48V269.395H47V337.595H0V339.046Z" fill="#1E3550"/>
<path fill-rule="evenodd" clip-rule="evenodd" d="M48 339.046H96V269.395H95V337.595H48V339.046Z" fill="#1E3550"/>
<path fill-rule="evenodd" clip-rule="evenodd" d="M96 339.046H144V269.395H143V337.595H96V339.046Z" fill="#1E3550"/>
<path fill-rule="evenodd" clip-rule="evenodd" d="M144 339.046H192V269.395H191V337.595H144V339.046Z" fill="#1E3550"/>
<path fill-rule="evenodd" clip-rule="evenodd" d="M192 339.046H240V269.395H239V337.595H192V339.046Z" fill="#1E3550"/>
<path fill-rule="evenodd" clip-rule="evenodd" d="M240 339.046H288V269.395H287V337.595H240V339.046Z" fill="#1E3550"/>
<path fill-rule="evenodd" clip-rule="evenodd" d="M288 339.046H336V269.395H335V337.595H288V339.046Z" fill="#1E3550"/>
<path fill-rule="evenodd" clip-rule="evenodd" d="M336 339.046H384V269.395H383V337.595H336V339.046Z" fill="#1E3550"/>
<path fill-rule="evenodd" clip-rule="evenodd" d="M384 339.046H432V269.395H431V337.595H384V339.046Z" fill="#1E3550"/>
<path d="M432 269.395H480V339.046H432V269.395Z" fill="#1E3550"/>
<path fill-rule="evenodd" clip-rule="evenodd" d="M432 339.046H480V269.395H479V337.595H432V339.046Z" fill="#1E3550"/>
<path fill-rule="evenodd" clip-rule="evenodd" d="M480 339.046H528V269.395H527V337.595H480V339.046Z" fill="#1E3550"/>
<path fill-rule="evenodd" clip-rule="evenodd" d="M528 339.046H576V269.395H575V337.595H528V339.046Z" fill="#1E3550"/>
<path fill-rule="evenodd" clip-rule="evenodd" d="M576 339.046H624V269.395H623V337.595H576V339.046Z" fill="#1E3550"/>
<path fill-rule="evenodd" clip-rule="evenodd" d="M624 339.046H672V269.395H671V337.595H624V339.046Z" fill="#1E3550"/>
<path fill-rule="evenodd" clip-rule="evenodd" d="M672 339.046H720V269.395H719V337.595H672V339.046Z" fill="#1E3550"/>
<path fill-rule="evenodd" clip-rule="evenodd" d="M720 339.046H768V269.395H767V337.595H720V339.046Z" fill="#1E3550"/>
<path fill-rule="evenodd" clip-rule="evenodd" d="M768 339.046H816V269.395H815V337.595H768V339.046Z" fill="#1E3550"/>
<path fill-rule="evenodd" clip-rule="evenodd" d="M816 339.046H864V269.395H863V337.595H816V339.046Z" fill="#1E3550"/>
<path fill-rule="evenodd" clip-rule="evenodd" d="M864 339.046H912V269.395H911V337.595H864V339.046Z" fill="#1E3550"/>
<path fill-rule="evenodd" clip-rule="evenodd" d="M912 339.046H960V269.395H959V337.595H912V339.046Z" fill="#1E3550"/>
<path fill-rule="evenodd" clip-rule="evenodd" d="M960 339.046H1008V269.395H1007V337.595H960V339.046Z" fill="#1E3550"/>
<path fill-rule="evenodd" clip-rule="evenodd" d="M1008 339.046H1056V269.395H1055V337.595H1008V339.046Z" fill="#1E3550"/>
<path fill-rule="evenodd" clip-rule="evenodd" d="M1056 339.046H1104V269.395H1103V337.595H1056V339.046Z" fill="#1E3550"/>
<path d="M1104 269.395H1152V339.046H1104V269.395Z" fill="#1E3550"/>
<path fill-rule="evenodd" clip-rule="evenodd" d="M1104 339.046H1152V269.395H1151V337.595H1104V339.046Z" fill="#1E3550"/>
<path fill-rule="evenodd" clip-rule="evenodd" d="M1152 339.046H1200V269.395H1199V337.595H1152V339.046Z" fill="#1E3550"/>
<path fill-rule="evenodd" clip-rule="evenodd" d="M1200 339.046H1248V269.395H1247V337.595H1200V339.046Z" fill="#1E3550"/>
<path fill-rule="evenodd" clip-rule="evenodd" d="M1248 339.046H1296V269.395H1295V337.595H1248V339.046Z" fill="#1E3550"/>
<path fill-rule="evenodd" clip-rule="evenodd" d="M1296 339.046H1344V269.395H1343V337.595H1296V339.046Z" fill="#1E3550"/>
<path fill-rule="evenodd" clip-rule="evenodd" d="M1344 339.046H1392V269.395H1391V337.595H1344V339.046Z" fill="#1E3550"/>
<path fill-rule="evenodd" clip-rule="evenodd" d="M1392 339.046H1440V269.395H1439V337.595H1392V339.046Z" fill="#1E3550"/>
<path fill-rule="evenodd" clip-rule="evenodd" d="M0 408.697H48V339.046H47V407.246H0V408.697Z" fill="#1E3550"/>
<path fill-rule="evenodd" clip-rule="evenodd" d="M48 408.697H96V339.046H95V407.246H48V408.697Z" fill="#1E3550"/>
<path fill-rule="evenodd" clip-rule="evenodd" d="M96 408.697H144V339.046H143V407.246H96V408.697Z" fill="#1E3550"/>
<path fill-rule="evenodd" clip-rule="evenodd" d="M144 408.697H192V339.046H191V407.246H144V408.697Z" fill="#1E3550"/>
<path d="M192 339.046H240V408.697H192V339.046Z" fill="#1E3550"/>
<path fill-rule="evenodd" clip-rule="evenodd" d="M192 408.697H240V339.046H239V407.246H192V408.697Z" fill="#1E3550"/>
<path fill-rule="evenodd" clip-rule="evenodd" d="M240 408.697H288V339.046H287V407.246H240V408.697Z" fill="#1E3550"/>
<path fill-rule="evenodd" clip-rule="evenodd" d="M288 408.697H336V339.046H335V407.246H288V408.697Z" fill="#1E3550"/>
<path fill-rule="evenodd" clip-rule="evenodd" d="M336 408.697H384V339.046H383V407.246H336V408.697Z" fill="#1E3550"/>
<path fill-rule="evenodd" clip-rule="evenodd" d="M384 408.697H432V339.046H431V407.246H384V408.697Z" fill="#1E3550"/>
<path fill-rule="evenodd" clip-rule="evenodd" d="M432 408.697H480V339.046H479V407.246H432V408.697Z" fill="#1E3550"/>
<path fill-rule="evenodd" clip-rule="evenodd" d="M480 408.697H528V339.046H527V407.246H480V408.697Z" fill="#1E3550"/>
<path fill-rule="evenodd" clip-rule="evenodd" d="M528 408.697H576V339.046H575V407.246H528V408.697Z" fill="#1E3550"/>
<path fill-rule="evenodd" clip-rule="evenodd" d="M576 408.697H624V339.046H623V407.246H576V408.697Z" fill="#1E3550"/>
<path d="M624 339.046H672V408.697H624V339.046Z" fill="#1E3550"/>
<path fill-rule="evenodd" clip-rule="evenodd" d="M624 408.697H672V339.046H671V407.246H624V408.697Z" fill="#1E3550"/>
<path fill-rule="evenodd" clip-rule="evenodd" d="M672 408.697H720V339.046H719V407.246H672V408.697Z" fill="#1E3550"/>
<path fill-rule="evenodd" clip-rule="evenodd" d="M720 408.697H768V339.046H767V407.246H720V408.697Z" fill="#1E3550"/>
<path fill-rule="evenodd" clip-rule="evenodd" d="M768 408.697H816V339.046H815V407.246H768V408.697Z" fill="#1E3550"/>
<path fill-rule="evenodd" clip-rule="evenodd" d="M816 408.697H864V339.046H863V407.246H816V408.697Z" fill="#1E3550"/>
<path fill-rule="evenodd" clip-rule="evenodd" d="M864 408.697H912V339.046H911V407.246H864V408.697Z" fill="#1E3550"/>
<path fill-rule="evenodd" clip-rule="evenodd" d="M912 408.697H960V339.046H959V407.246H912V408.697Z" fill="#1E3550"/>
<path d="M960 339.046H1008V408.697H960V339.046Z" fill="#1E3550"/>
<path fill-rule="evenodd" clip-rule="evenodd" d="M960 408.697H1008V339.046H1007V407.246H960V408.697Z" fill="#1E3550"/>
<path fill-rule="evenodd" clip-rule="evenodd" d="M1008 408.697H1056V339.046H1055V407.246H1008V408.697Z" fill="#1E3550"/>
<path fill-rule="evenodd" clip-rule="evenodd" d="M1056 408.697H1104V339.046H1103V407.246H1056V408.697Z" fill="#1E3550"/>
<path fill-rule="evenodd" clip-rule="evenodd" d="M1104 408.697H1152V339.046H1151V407.246H1104V408.697Z" fill="#1E3550"/>
<path fill-rule="evenodd" clip-rule="evenodd" d="M1152 408.697H1200V339.046H1199V407.246H1152V408.697Z" fill="#1E3550"/>
<path fill-rule="evenodd" clip-rule="evenodd" d="M1200 408.697H1248V339.046H1247V407.246H1200V408.697Z" fill="#1E3550"/>
<path fill-rule="evenodd" clip-rule="evenodd" d="M1248 408.697H1296V339.046H1295V407.246H1248V408.697Z" fill="#1E3550"/>
<path fill-rule="evenodd" clip-rule="evenodd" d="M1296 408.697H1344V339.046H1343V407.246H1296V408.697Z" fill="#1E3550"/>
<path fill-rule="evenodd" clip-rule="evenodd" d="M1344 408.697H1392V339.046H1391V407.246H1344V408.697Z" fill="#1E3550"/>
<path fill-rule="evenodd" clip-rule="evenodd" d="M1392 408.697H1440V339.046H1439V407.246H1392V408.697Z" fill="#1E3550"/>
<path fill-rule="evenodd" clip-rule="evenodd" d="M0 478.349H48V408.697H47V476.898H0V478.349Z" fill="#1E3550"/>
<path d="M48 408.697H96V478.349H48V408.697Z" fill="#1E3550"/>
<path fill-rule="evenodd" clip-rule="evenodd" d="M48 478.349H96V408.697H95V476.898H48V478.349Z" fill="#1E3550"/>
<path fill-rule="evenodd" clip-rule="evenodd" d="M96 478.349H144V408.697H143V476.898H96V478.349Z" fill="#1E3550"/>
<path fill-rule="evenodd" clip-rule="evenodd" d="M144 478.349H192V408.697H191V476.898H144V478.349Z" fill="#1E3550"/>
<path fill-rule="evenodd" clip-rule="evenodd" d="M192 478.349H240V408.697H239V476.898H192V478.349Z" fill="#1E3550"/>
<path fill-rule="evenodd" clip-rule="evenodd" d="M240 478.349H288V408.697H287V476.898H240V478.349Z" fill="#1E3550"/>
<path fill-rule="evenodd" clip-rule="evenodd" d="M288 478.349H336V408.697H335V476.898H288V478.349Z" fill="#1E3550"/>
<path d="M336 408.697H384V478.349H336V408.697Z" fill="#1E3550"/>
<path fill-rule="evenodd" clip-rule="evenodd" d="M336 478.349H384V408.697H383V476.898H336V478.349Z" fill="#1E3550"/>
<path fill-rule="evenodd" clip-rule="evenodd" d="M384 478.349H432V408.697H431V476.898H384V478.349Z" fill="#1E3550"/>
<path fill-rule="evenodd" clip-rule="evenodd" d="M432 478.349H480V408.697H479V476.898H432V478.349Z" fill="#1E3550"/>
<path fill-rule="evenodd" clip-rule="evenodd" d="M480 478.349H528V408.697H527V476.898H480V478.349Z" fill="#1E3550"/>
<path fill-rule="evenodd" clip-rule="evenodd" d="M528 478.349H576V408.697H575V476.898H528V478.349Z" fill="#1E3550"/>
<path fill-rule="evenodd" clip-rule="evenodd" d="M576 478.349H624V408.697H623V476.898H576V478.349Z" fill="#1E3550"/>
<path fill-rule="evenodd" clip-rule="evenodd" d="M624 478.349H672V408.697H671V476.898H624V478.349Z" fill="#1E3550"/>
<path fill-rule="evenodd" clip-rule="evenodd" d="M672 478.349H720V408.697H719V476.898H672V478.349Z" fill="#1E3550"/>
<path d="M720 408.697H768V478.349H720V408.697Z" fill="#1E3550"/>
<path fill-rule="evenodd" clip-rule="evenodd" d="M720 478.349H768V408.697H767V476.898H720V478.349Z" fill="#1E3550"/>
<path fill-rule="evenodd" clip-rule="evenodd" d="M768 478.349H816V408.697H815V476.898H768V478.349Z" fill="#1E3550"/>
<path fill-rule="evenodd" clip-rule="evenodd" d="M816 478.349H864V408.697H863V476.898H816V478.349Z" fill="#1E3550"/>
<path fill-rule="evenodd" clip-rule="evenodd" d="M864 478.349H912V408.697H911V476.898H864V478.349Z" fill="#1E3550"/>
<path fill-rule="evenodd" clip-rule="evenodd" d="M912 478.349H960V408.697H959V476.898H912V478.349Z" fill="#1E3550"/>
<path fill-rule="evenodd" clip-rule="evenodd" d="M960 478.349H1008V408.697H1007V476.898H960V478.349Z" fill="#1E3550"/>
<path fill-rule="evenodd" clip-rule="evenodd" d="M1008 478.349H1056V408.697H1055V476.898H1008V478.349Z" fill="#1E3550"/>
<path fill-rule="evenodd" clip-rule="evenodd" d="M1056 478.349H1104V408.697H1103V476.898H1056V478.349Z" fill="#1E3550"/>
<path fill-rule="evenodd" clip-rule="evenodd" d="M1104 478.349H1152V408.697H1151V476.898H1104V478.349Z" fill="#1E3550"/>
<path d="M1152 408.697H1200V478.349H1152V408.697Z" fill="#1E3550"/>
<path fill-rule="evenodd" clip-rule="evenodd" d="M1152 478.349H1200V408.697H1199V476.898H1152V478.349Z" fill="#1E3550"/>
<path fill-rule="evenodd" clip-rule="evenodd" d="M1200 478.349H1248V408.697H1247V476.898H1200V478.349Z" fill="#1E3550"/>
<path fill-rule="evenodd" clip-rule="evenodd" d="M1248 478.349H1296V408.697H1295V476.898H1248V478.349Z" fill="#1E3550"/>
<path fill-rule="evenodd" clip-rule="evenodd" d="M1296 478.349H1344V408.697H1343V476.898H1296V478.349Z" fill="#1E3550"/>
<path fill-rule="evenodd" clip-rule="evenodd" d="M1344 478.349H1392V408.697H1391V476.898H1344V478.349Z" fill="#1E3550"/>
<path fill-rule="evenodd" clip-rule="evenodd" d="M1392 478.349H1440V408.697H1439V476.898H1392V478.349Z" fill="#1E3550"/>
<path fill-rule="evenodd" clip-rule="evenodd" d="M0 548H48V478.349H47V546.549H0V548Z" fill="#1E3550"/>
<path fill-rule="evenodd" clip-rule="evenodd" d="M48 548H96V478.349H95V546.549H48V548Z" fill="#1E3550"/>
<path fill-rule="evenodd" clip-rule="evenodd" d="M96 548H144V478.349H143V546.549H96V548Z" fill="#1E3550"/>
<path fill-rule="evenodd" clip-rule="evenodd" d="M144 548H192V478.349H191V546.549H144V548Z" fill="#1E3550"/>
<path fill-rule="evenodd" clip-rule="evenodd" d="M192 548H240V478.349H239V546.549H192V548Z" fill="#1E3550"/>
<path fill-rule="evenodd" clip-rule="evenodd" d="M240 548H288V478.349H287V546.549H240V548Z" fill="#1E3550"/>
<path fill-rule="evenodd" clip-rule="evenodd" d="M288 548H336V478.349H335V546.549H288V548Z" fill="#1E3550"/>
<path fill-rule="evenodd" clip-rule="evenodd" d="M336 548H384V478.349H383V546.549H336V548Z" fill="#1E3550"/>
<path fill-rule="evenodd" clip-rule="evenodd" d="M384 548H432V478.349H431V546.549H384V548Z" fill="#1E3550"/>
<path fill-rule="evenodd" clip-rule="evenodd" d="M432 548H480V478.349H479V546.549H432V548Z" fill="#1E3550"/>
<path fill-rule="evenodd" clip-rule="evenodd" d="M480 548H528V478.349H527V546.549H480V548Z" fill="#1E3550"/>
<path fill-rule="evenodd" clip-rule="evenodd" d="M528 548H576V478.349H575V546.549H528V548Z" fill="#1E3550"/>
<path fill-rule="evenodd" clip-rule="evenodd" d="M576 548H624V478.349H623V546.549H576V548Z" fill="#1E3550"/>
<path fill-rule="evenodd" clip-rule="evenodd" d="M624 548H672V478.349H671V546.549H624V548Z" fill="#1E3550"/>
<path fill-rule="evenodd" clip-rule="evenodd" d="M672 548H720V478.349H719V546.549H672V548Z" fill="#1E3550"/>
<path fill-rule="evenodd" clip-rule="evenodd" d="M720 548H768V478.349H767V546.549H720V548Z" fill="#1E3550"/>
<path fill-rule="evenodd" clip-rule="evenodd" d="M768 548H816V478.349H815V546.549H768V548Z" fill="#1E3550"/>
<path fill-rule="evenodd" clip-rule="evenodd" d="M816 548H864V478.349H863V546.549H816V548Z" fill="#1E3550"/>
<path fill-rule="evenodd" clip-rule="evenodd" d="M864 548H912V478.349H911V546.549H864V548Z" fill="#1E3550"/>
<path fill-rule="evenodd" clip-rule="evenodd" d="M912 548H960V478.349H959V546.549H912V548Z" fill="#1E3550"/>
<path fill-rule="evenodd" clip-rule="evenodd" d="M960 548H1008V478.349H1007V546.549H960V548Z" fill="#1E3550"/>
<path fill-rule="evenodd" clip-rule="evenodd" d="M1008 548H1056V478.349H1055V546.549H1008V548Z" fill="#1E3550"/>
<path fill-rule="evenodd" clip-rule="evenodd" d="M1056 548H1104V478.349H1103V546.549H1056V548Z" fill="#1E3550"/>
<path fill-rule="evenodd" clip-rule="evenodd" d="M1104 548H1152V478.349H1151V546.549H1104V548Z" fill="#1E3550"/>
<path fill-rule="evenodd" clip-rule="evenodd" d="M1152 548H1200V478.349H1199V546.549H1152V548Z" fill="#1E3550"/>
<path fill-rule="evenodd" clip-rule="evenodd" d="M1200 548H1248V478.349H1247V546.549H1200V548Z" fill="#1E3550"/>
<path fill-rule="evenodd" clip-rule="evenodd" d="M1248 548H1296V478.349H1295V546.549H1248V548Z" fill="#1E3550"/>
<path fill-rule="evenodd" clip-rule="evenodd" d="M1296 548H1344V478.349H1343V546.549H1296V548Z" fill="#1E3550"/>
<path fill-rule="evenodd" clip-rule="evenodd" d="M1344 548H1392V478.349H1391V546.549H1344V548Z" fill="#1E3550"/>
<path fill-rule="evenodd" clip-rule="evenodd" d="M1392 548H1440V478.349H1439V546.549H1392V548Z" fill="#1E3550"/>
</svg>
