<svg width="59" height="56" viewBox="0 0 59 56" fill="none" xmlns="http://www.w3.org/2000/svg">
<g id="Frame">
<g id="Layer 36">
<path id="36" d="M43.9704 22.2974L43.9706 22.2972C45.2792 21.0324 45.2812 18.9747 43.9702 17.7103C42.6698 16.456 40.5696 16.4558 39.2702 17.7105L25.054 31.4364L19.7271 26.2931L19.7269 26.2929C18.4265 25.0387 16.3263 25.0384 15.0268 26.2931L15.0267 26.2933C13.7178 27.5583 13.7175 29.6158 15.0268 30.88L22.7039 38.2924L22.7041 38.2925C24.0045 39.5468 26.1047 39.547 27.4041 38.2924L43.9704 22.2974ZM24.7067 32.4911L25.054 32.8264L25.4013 32.4911L39.9648 18.4299C40.8765 17.5495 42.3628 17.5493 43.276 18.43C44.1785 19.3005 44.1782 20.7056 43.2758 21.578C43.2757 21.578 43.2757 21.5781 43.2756 21.5781L26.7095 37.573C25.7978 38.4532 24.3117 38.4535 23.3985 37.573C23.3984 37.5729 23.3984 37.5728 23.3983 37.5728L15.7214 30.1606C14.8196 29.2899 14.8193 27.8847 15.7214 27.0125C16.6332 26.1322 18.1193 26.1319 19.0325 27.0125C19.0325 27.0126 19.0326 27.0126 19.0327 27.0127L24.7067 32.4911ZM41.6198 16.6758C42.5517 16.6759 43.422 17.0255 44.0756 17.6566C44.7287 18.2872 45.084 19.1196 45.084 20.0039C45.084 20.8882 44.7287 21.7206 44.0756 22.3512L44.0755 22.3512L27.5104 38.3462C26.8567 38.9774 25.9862 39.327 25.054 39.327C24.1219 39.327 23.2514 38.9774 22.5976 38.3462L14.9205 30.9339C14.2674 30.3033 13.9121 29.4709 13.9121 28.5866C13.9121 27.7022 14.2674 26.8699 14.9205 26.2392L14.5732 25.8795L14.9205 26.2392C15.5743 25.608 16.4448 25.2584 17.377 25.2584C18.3091 25.2584 19.1796 25.608 19.8334 26.2392L24.7067 30.9445L25.054 31.2799L25.4013 30.9445L39.1639 17.6566C39.8175 17.0255 40.6877 16.6759 41.6196 16.6758H41.6198Z" stroke="white"/>
<path id="Vector" d="M44 53.1562H15C11.9362 53.1539 8.99866 51.9778 6.83225 49.8861C4.66585 47.7944 3.44771 44.9581 3.44531 42V14C3.44771 11.0419 4.66585 8.2056 6.83225 6.1139C8.99866 4.0222 11.9362 2.84607 15 2.84375H44C47.0638 2.84607 50.0013 4.0222 52.1677 6.1139C54.3342 8.2056 55.5523 11.0419 55.5547 14V42C55.5523 44.9581 54.3342 47.7944 52.1677 49.8861C50.0013 51.9778 47.0638 53.1539 44 53.1562ZM15 4.15625C12.2975 4.16088 9.70707 5.19947 7.79612 7.04453C5.88516 8.88959 4.80948 11.3907 4.80469 14V42C4.80948 44.6093 5.88516 47.1104 7.79612 48.9555C9.70707 50.8005 12.2975 51.8391 15 51.8438H44C46.7025 51.8391 49.2929 50.8005 51.2039 48.9555C53.1148 47.1104 54.1905 44.6093 54.1953 42V14C54.1905 11.3907 53.1148 8.88959 51.2039 7.04453C49.2929 5.19947 46.7025 4.16088 44 4.15625H15Z" fill="white"/>
</g>
</g>
</svg>
