<svg xmlns="http://www.w3.org/2000/svg" width="48" height="48" viewBox="0 0 48 48" fill="none">
  <path d="M2.24081 21.6511C1.88143 21.2317 1.92977 20.6003 2.34921 20.241L11.0001 12.8259V6.00024H8.00008V14.0002C8.00008 14.5525 7.55233 15.0002 7.00008 15.0002C6.44784 15.0002 6.00008 14.5525 6.00008 14.0002V5.00024C6.00008 4.448 6.44784 4.00024 7.00008 4.00024H12.0001C12.5523 4.00024 13.0001 4.448 13.0001 5.00024V11.1116L23.3492 2.24097C23.7242 1.91968 24.276 1.91968 24.651 2.24097L45.6505 20.241C46.0704 20.6003 46.1192 21.2317 45.7589 21.6511C45.5616 21.8816 45.2813 22.0002 45.0001 22.0002C44.7696 22.0002 44.5382 21.9211 44.3497 21.7595L24.0001 4.31714L3.65096 21.7595C3.23202 22.1184 2.59969 22.0701 2.24081 21.6511ZM22.0001 26.0002C22.5523 26.0002 23.0001 26.4475 23.0001 27.0002V37.0002C23.0001 37.553 22.5523 38.0002 22.0001 38.0002H12.0001C11.4478 38.0002 11.0001 37.553 11.0001 37.0002V27.0002C11.0001 26.4475 11.4478 26.0002 12.0001 26.0002H22.0001ZM16.0001 33.0002H13.0001V36.0002H16.0001V33.0002ZM16.0001 28.0002H13.0001V31.0002H16.0001V28.0002ZM21.0001 33.0002H18.0001V36.0002H21.0001V33.0002ZM21.0001 28.0002H18.0001V31.0002H21.0001V28.0002ZM45.0001 44.0002H42.0001V23.0002C42.0001 22.448 41.5528 22.0002 41.0001 22.0002C40.4473 22.0002 40.0001 22.448 40.0001 23.0002V44.0002H36.0001V27.0002C36.0001 26.4475 35.5528 26.0002 35.0001 26.0002H27.0001C26.4473 26.0002 26.0001 26.4475 26.0001 27.0002V44.0002H19.0001H8.00008V23.0002C8.00008 22.448 7.55233 22.0002 7.00008 22.0002C6.44784 22.0002 6.00008 22.448 6.00008 23.0002V44.0002H3.00008C2.44784 44.0002 2.00008 44.4475 2.00008 45.0002C2.00008 45.553 2.44784 46.0002 3.00008 46.0002H7.00008H19.0001H27.0001C27.5528 46.0002 28.0001 45.553 28.0001 45.0002V28.0002H34.0001V45.0002C34.0001 45.553 34.4473 46.0002 35.0001 46.0002H40.0001H41.0001H45.0001C45.5528 46.0002 46.0001 45.553 46.0001 45.0002C46.0001 44.4475 45.5528 44.0002 45.0001 44.0002Z" fill="white"/>
</svg>