<svg xmlns="http://www.w3.org/2000/svg" width="41" height="44" viewBox="0 0 41 44" fill="none">
  <path d="M0.982422 10.5013C0.78351 10.5013 0.592744 10.5804 0.452092 10.721C0.311439 10.8617 0.232422 11.0524 0.232422 11.2513V42.5496C0.232422 42.7485 0.311439 42.9393 0.452092 43.0799C0.592744 43.2206 0.78351 43.2996 0.982422 43.2996H39.4469C39.6458 43.2996 39.8366 43.2206 39.9773 43.0799C40.1179 42.9393 40.1969 42.7485 40.1969 42.5496V11.2513C40.1969 11.0524 40.1179 10.8617 39.9773 10.721C39.8366 10.5804 39.6458 10.5013 39.4469 10.5013H20.9647V6.77459H22.3034C22.5023 6.77459 22.6931 6.69558 22.8338 6.55492C22.9744 6.41427 23.0534 6.22351 23.0534 6.02459V1.30859C23.0534 1.10968 22.9744 0.918916 22.8338 0.778264C22.6931 0.637611 22.5023 0.558594 22.3034 0.558594H6.72517C6.52626 0.558594 6.33549 0.637611 6.19484 0.778264C6.05419 0.918916 5.97517 1.10968 5.97517 1.30859V6.02459C5.97517 6.22351 6.05419 6.41427 6.19484 6.55492C6.33549 6.69558 6.52626 6.77459 6.72517 6.77459H8.06392V10.4983L0.982422 10.5013ZM1.73242 12.0013H9.84817V21.6193C9.84758 22.239 9.60119 22.8332 9.16307 23.2715C8.72495 23.7097 8.13087 23.9563 7.51117 23.9571H4.07017C3.45034 23.9565 2.85608 23.71 2.41779 23.2717C1.97951 22.8334 1.73302 22.2392 1.73242 21.6193V12.0013ZM38.6969 30.9193V31.9056C38.6961 32.5254 38.4496 33.1195 38.0113 33.5578C37.5731 33.996 36.9789 34.2426 36.3592 34.2433H32.9182C32.2983 34.2427 31.7041 33.9963 31.2658 33.558C30.8275 33.1197 30.581 32.5254 30.5804 31.9056V24.6418C31.2469 25.1668 32.0698 25.4537 32.9182 25.4571H36.3592C37.2077 25.4538 38.0307 25.1666 38.6969 24.6411V30.9193ZM29.0804 31.9056C29.0798 32.5254 28.8333 33.1197 28.3951 33.558C27.9568 33.9963 27.3625 34.2427 26.7427 34.2433H23.3002C22.6805 34.2426 22.0864 33.996 21.6483 33.5577C21.2102 33.1194 20.9638 32.5253 20.9632 31.9056V24.6418C21.6294 25.1668 22.452 25.4537 23.3002 25.4571H26.7427C27.5912 25.4538 28.4142 25.1666 29.0804 24.6411V31.9056ZM1.73242 31.3881V24.6381C2.39828 25.1646 3.2213 25.453 4.07017 25.4571H7.51117C8.35932 25.4537 9.18197 25.1668 9.84817 24.6418V31.9056C9.84758 32.5253 9.60119 33.1194 9.16307 33.5577C8.72495 33.996 8.13087 34.2426 7.51117 34.2433H4.07017C3.45034 34.2427 2.85608 33.9963 2.41779 33.558C1.97951 33.1197 1.73302 32.5254 1.73242 31.9056V31.3881ZM11.3482 24.6381C12.0144 25.1636 12.8374 25.4508 13.6859 25.4541H17.1269C17.9754 25.4508 18.7984 25.1636 19.4647 24.6381V31.9026C19.4641 32.5224 19.2176 33.1167 18.7793 33.555C18.341 33.9933 17.7467 34.2397 17.1269 34.2403H13.6859C13.0661 34.2397 12.4718 33.9933 12.0335 33.555C11.5953 33.1167 11.3488 32.5224 11.3482 31.9026V24.6381ZM19.4647 21.5346V21.6163C19.4641 22.2362 19.2176 22.8304 18.7793 23.2687C18.341 23.707 17.7467 23.9535 17.1269 23.9541H13.6859C13.0661 23.9535 12.4718 23.707 12.0335 23.2687C11.5953 22.8304 11.3488 22.2362 11.3482 21.6163V12.0013H19.4647V21.5346ZM1.73242 41.7996V34.9273C2.39867 35.4528 3.22166 35.7401 4.07017 35.7433H7.51117C8.11383 35.7418 8.70759 35.5978 9.24405 35.3232C9.78051 35.0486 10.2445 34.6511 10.5982 34.1631C10.9519 34.6512 11.416 35.0487 11.9526 35.3233C12.4892 35.598 13.0831 35.7419 13.6859 35.7433H17.1269C17.7297 35.7419 18.3236 35.598 18.8602 35.3233C19.3968 35.0487 19.8609 34.6512 20.2147 34.1631C20.5682 34.6509 21.0319 35.0482 21.5681 35.3228C22.1043 35.5974 22.6978 35.7415 23.3002 35.7433H26.7427C27.3455 35.7419 27.9394 35.598 28.476 35.3233C29.0126 35.0487 29.4767 34.6512 29.8304 34.1631C30.1842 34.6512 30.6483 35.0487 31.1849 35.3233C31.7215 35.598 32.3154 35.7419 32.9182 35.7433H36.3592C37.2077 35.7401 38.0307 35.4528 38.6969 34.9273V41.7996H1.73242ZM38.6969 21.5376V21.6193C38.6961 22.2391 38.4496 22.8333 38.0113 23.2715C37.5731 23.7097 36.9789 23.9563 36.3592 23.9571H32.9182C32.2983 23.9565 31.7041 23.71 31.2658 23.2717C30.8275 22.8334 30.581 22.2392 30.5804 21.6193V12.0013H38.6969V21.5376ZM29.0804 21.5376V21.6193C29.0798 22.2392 28.8333 22.8334 28.3951 23.2717C27.9568 23.71 27.3625 23.9565 26.7427 23.9571H23.3002C22.6805 23.9563 22.0864 23.7097 21.6483 23.2715C21.2102 22.8332 20.9638 22.239 20.9632 21.6193V12.0013H29.0804V21.5376ZM7.47517 2.05859H21.5534V5.27459H7.47517V2.05859ZM9.56242 6.77459H19.4624V10.4983H9.56242V6.77459Z" fill="white"/>
</svg>