<svg xmlns="http://www.w3.org/2000/svg" width="48" height="48" viewBox="0 0 48 48" fill="none">
  <g clip-path="url(#clip0_2166_939)">
    <path d="M40.3965 33.2551C38.6186 33.2551 36.9858 33.8882 35.7114 34.9409L33.7867 32.9959C35.7412 30.8232 36.9847 27.9988 37.1487 24.8925H39.0516C39.3882 26.934 41.1639 28.4963 43.2985 28.4963C45.6725 28.4963 47.6038 26.5642 47.6038 24.1894C47.6038 21.816 45.6725 19.885 43.2985 19.885C41.1641 19.885 39.3884 21.4463 39.0517 23.4863H37.1488C37.1053 22.6565 36.9859 21.8363 36.7901 21.0397C36.6975 20.6626 36.3161 20.4321 35.9395 20.5247C35.5625 20.6174 35.3319 20.9982 35.4246 21.3753C35.6486 22.2865 35.7622 23.2333 35.7622 24.1894C35.7622 27.5541 34.3437 30.5932 32.0743 32.7403C31.7753 29.982 29.4009 29.3448 27.6363 28.8716C27.5188 28.8401 27.4021 28.8088 27.2839 28.7765C27.1463 28.7393 27.0338 28.5533 26.9468 28.36C28.7002 27.1582 30.0032 25.1103 30.0032 23.3217V21.7014C30.0032 19.6871 29.3598 17.9767 28.1423 16.7552C27.0529 15.662 25.5859 15.0454 24.0118 15.019C24.0038 15.0189 23.9959 15.0189 23.9877 15.019C23.1288 15.034 22.2719 15.2327 21.51 15.5936C21.1591 15.7598 21.0094 16.1791 21.1756 16.5301C21.3418 16.8811 21.7612 17.0307 22.1121 16.8645C22.6911 16.5903 23.3438 16.4385 24.0002 16.4254C26.0228 16.4645 28.1821 17.8568 28.5441 20.8102C28.264 20.6767 28.0797 20.4886 27.8796 20.2843C27.4821 19.8787 26.9377 19.3234 25.8173 19.612C25.5427 19.6829 25.3092 19.7454 25.1071 19.7996C24.5244 19.9557 24.232 20.034 24 20.034C23.768 20.034 23.4756 19.9557 22.8929 19.7996C22.6908 19.7454 22.4573 19.6829 22.1824 19.612C21.0619 19.3232 20.5178 19.8788 20.1204 20.2843C19.92 20.4889 19.7355 20.6772 19.4547 20.8108C19.5568 19.9609 19.8099 19.2077 20.2111 18.5633C20.4162 18.2337 20.3154 17.8 19.9858 17.5948C19.6562 17.3896 19.2226 17.4904 19.0173 17.8201C18.3401 18.9077 17.9968 20.2135 17.9968 21.7014V23.3217C17.9968 25.1105 19.3003 27.1587 21.0531 28.3602C20.9658 28.5535 20.8527 28.7396 20.7135 28.7772C20.598 28.8088 20.4812 28.8401 20.3638 28.8716C18.5992 29.3448 16.2248 29.982 15.9258 32.7403C13.6563 30.5932 12.2379 27.5541 12.2379 24.1894C12.2379 17.7006 17.5143 12.4215 23.9999 12.4215C28.1536 12.4215 32.043 14.6508 34.1503 18.2393C34.1521 18.2422 34.1537 18.245 34.1554 18.2478C34.1923 18.3086 34.2276 18.3725 34.2627 18.4357L34.2944 18.4927C34.4838 18.8318 34.9122 18.9532 35.2511 18.7637C35.5901 18.5743 35.7114 18.1461 35.5222 17.807L35.4923 17.7532C35.4493 17.6757 35.4058 17.5977 35.3607 17.5231C34.9102 16.7565 34.3823 16.0397 33.7902 15.3818L35.7502 13.4012C36.9491 14.2463 38.4089 14.7447 39.9837 14.7447C41.7685 14.7447 43.4069 14.1063 44.6835 13.0462C44.7243 13.0178 44.7617 12.9851 44.7955 12.949C46.36 11.5961 47.3529 9.59859 47.3529 7.37231C47.353 3.30722 44.0471 0 39.9837 0C35.9203 0 32.6145 3.30722 32.6145 7.37241C32.6145 9.3555 33.4027 11.1569 34.6803 12.4833L32.7955 14.3878C32.1336 13.7929 31.4123 13.2629 30.6408 12.8113C28.8353 11.7545 26.7959 11.1475 24.7032 11.0358V9.1305C26.7438 8.79366 28.3054 7.01719 28.3054 4.88194C28.3054 2.50856 26.374 0.577594 24.0001 0.577594C21.6262 0.577594 19.6948 2.50856 19.6948 4.88194C19.6948 7.01719 21.2564 8.79366 23.297 9.1305V11.0342C20.195 11.1982 17.3748 12.4419 15.2042 14.3948L13.3072 12.4968C14.5924 11.1691 15.3858 9.36216 15.3858 7.37241C15.3857 3.30722 12.0799 0 8.01647 0C3.95306 0 0.647156 3.30722 0.647156 7.37241C0.647156 9.59878 1.64006 11.5962 3.20456 12.9491C3.23841 12.9852 3.27581 13.0179 3.31659 13.0463C4.59319 14.1064 6.23156 14.7448 8.01638 14.7448C9.58425 14.7448 11.0382 14.2508 12.2341 13.4125L14.2098 15.3892C12.2575 17.5607 11.0151 20.3827 10.851 23.4863H8.94853C8.61169 21.4463 6.83606 19.8851 4.70166 19.8851C2.32772 19.8851 0.396375 21.8161 0.396375 24.1895C0.396375 26.5643 2.32772 28.4964 4.70166 28.4964C6.83625 28.4964 8.61197 26.9341 8.94862 24.8926H10.8506C11.0145 27.997 12.2581 30.8192 14.2104 32.9913L12.2901 34.9108C11.0154 33.8574 9.38212 33.2238 7.60359 33.2238C3.54019 33.2238 0.234375 36.531 0.234375 40.5962C0.234375 44.6614 3.54028 47.9687 7.60359 47.9687C11.6669 47.9687 14.9728 44.6614 14.9728 40.5962C14.9728 38.8157 14.3385 37.1807 13.2843 35.9052L15.2044 33.9859C15.3732 34.1378 15.5458 34.2858 15.7221 34.4291C15.8901 34.5658 16.0634 34.7306 16.252 34.8371C18.2502 36.297 20.6727 37.2081 23.2967 37.347V39.2511C21.2561 39.5877 19.6945 41.3631 19.6945 43.4971C19.6945 45.872 21.6259 47.8041 23.9998 47.8041C26.3738 47.8041 28.3051 45.872 28.3051 43.4971C28.3051 41.3632 26.7435 39.5877 24.7029 39.2511V37.347C27.3267 37.2081 29.749 36.2971 31.7471 34.8374C31.7949 34.8104 31.8391 34.7778 31.8791 34.7407C32.1947 34.5042 32.4988 34.2533 32.7917 33.9901L34.7166 35.9352C33.6617 37.211 33.0269 38.8464 33.0269 40.6276C33.0269 42.8487 34.0152 44.8419 35.5732 46.1947C35.6137 46.2398 35.6594 46.28 35.7102 46.3134C36.9847 47.3666 38.6179 48 40.3962 48C42.1746 48 43.8077 47.3665 45.0822 46.3134C45.1329 46.28 45.1788 46.2398 45.2192 46.1947C46.7773 44.8419 47.7655 42.8487 47.7655 40.6276C47.7657 36.5624 44.4598 33.2551 40.3965 33.2551ZM43.2985 21.2914C44.8971 21.2914 46.1976 22.5915 46.1976 24.1895C46.1976 25.7889 44.8971 27.0902 43.2985 27.0902C41.7 27.0902 40.3995 25.7889 40.3995 24.1895C40.3995 22.5915 41.7 21.2914 43.2985 21.2914ZM39.9837 13.3387C38.6416 13.3387 37.4018 12.8924 36.4042 12.1408C36.5107 10.9913 37.171 9.957 38.1698 9.36825C38.6998 9.68878 39.3205 9.87356 39.9837 9.87356C40.6469 9.87356 41.2676 9.68878 41.7976 9.36825C42.7964 9.957 43.4568 10.9913 43.5633 12.1408C42.5656 12.8924 41.3258 13.3387 39.9837 13.3387ZM37.8735 6.35578C37.8735 5.19159 38.8202 4.24434 39.9837 4.24434C41.1473 4.24434 42.0938 5.19159 42.0938 6.35578C42.0938 7.52006 41.1473 8.46722 39.9837 8.46722C38.8202 8.46722 37.8735 7.52006 37.8735 6.35578ZM34.0208 7.37241C34.0208 4.08263 36.6957 1.40625 39.9837 1.40625C43.2717 1.40625 45.9467 4.08263 45.9467 7.37241C45.9467 8.71566 45.5004 9.95634 44.7488 10.9546C44.4178 9.92081 43.7542 9.01303 42.8571 8.37966C43.2615 7.80684 43.5001 7.10887 43.5001 6.35578C43.5001 4.41619 41.9227 2.83809 39.9837 2.83809C38.0447 2.83809 36.4673 4.41619 36.4673 6.35578C36.4673 7.10887 36.7058 7.80684 37.1103 8.37975C36.2132 9.01313 35.5496 9.92081 35.2185 10.9546C34.467 9.95634 34.0208 8.71566 34.0208 7.37241ZM21.1011 4.88194C21.1011 3.28397 22.4016 1.98384 24.0001 1.98384C25.5986 1.98384 26.8991 3.28397 26.8991 4.88194C26.8991 6.48141 25.5986 7.78266 24.0001 7.78266C22.4016 7.78266 21.1011 6.48141 21.1011 4.88194ZM8.01647 13.3387C6.67434 13.3387 5.43459 12.8924 4.43691 12.1408C4.54341 10.9913 5.20378 9.957 6.20259 9.36825C6.73256 9.68878 7.35328 9.87356 8.01647 9.87356C8.67966 9.87356 9.30038 9.68878 9.83034 9.36825C10.8291 9.957 11.4895 10.9913 11.596 12.1408C10.5983 12.8924 9.35859 13.3387 8.01647 13.3387ZM5.90634 6.35578C5.90634 5.19159 6.85294 4.24434 8.01647 4.24434C9.18 4.24434 10.1267 5.19159 10.1267 6.35578C10.1267 7.52006 9.18 8.46722 8.01647 8.46722C6.85294 8.46722 5.90634 7.52006 5.90634 6.35578ZM10.8899 8.37975C11.2943 7.80684 11.5329 7.10887 11.5329 6.35578C11.5329 4.41619 9.9555 2.83809 8.01647 2.83809C6.07753 2.83809 4.50009 4.41619 4.50009 6.35578C4.50009 7.10887 4.73869 7.80684 5.14303 8.37975C4.24594 9.01313 3.58228 9.92081 3.25125 10.9547C2.49966 9.95644 2.05341 8.71566 2.05341 7.3725C2.05341 4.08263 4.72847 1.40625 8.01647 1.40625C11.3045 1.40625 13.9794 4.08263 13.9794 7.37241C13.9794 8.71566 13.5332 9.95634 12.7816 10.9546C12.4506 9.92081 11.787 9.01313 10.8899 8.37975ZM4.70166 27.0902C3.10313 27.0902 1.80262 25.7889 1.80262 24.1895C1.80262 22.5915 3.10313 21.2914 4.70166 21.2914C6.30019 21.2914 7.60069 22.5915 7.60069 24.1895C7.60069 25.7889 6.30019 27.0902 4.70166 27.0902ZM7.60369 46.5624C6.26156 46.5624 5.02172 46.1162 4.02412 45.3646C4.13053 44.2142 4.79053 43.1797 5.78897 42.5916C6.31913 42.9124 6.94013 43.0973 7.60369 43.0973C8.26669 43.0973 8.88731 42.9127 9.41719 42.5922C10.4163 43.1809 11.0768 44.215 11.1833 45.3645C10.1857 46.1161 8.94591 46.5624 7.60369 46.5624ZM5.49366 39.5796C5.49366 38.4154 6.44025 37.4681 7.60378 37.4681C8.76731 37.4681 9.714 38.4154 9.714 39.5796C9.714 40.7438 8.76731 41.691 7.60378 41.691C6.44025 41.691 5.49366 40.7438 5.49366 39.5796ZM12.3689 44.1784C12.0379 43.1445 11.3752 42.2357 10.4779 41.6025C10.8818 41.0298 11.1202 40.3322 11.1202 39.5796C11.1202 37.64 9.54272 36.0619 7.60369 36.0619C5.66475 36.0619 4.08731 37.64 4.08731 39.5796C4.08731 40.3317 4.32525 41.0289 4.72875 41.6014C3.83156 42.2345 3.16913 43.1436 2.83819 44.1781C2.08688 43.1798 1.64072 41.9393 1.64072 40.5962C1.64072 37.3064 4.31569 34.63 7.60369 34.63C10.8917 34.63 13.5667 37.3064 13.5667 40.5962C13.5668 41.9394 13.1205 43.1801 12.3689 44.1784ZM19.4033 23.3218V22.3055C20.317 22.0913 20.7917 21.6087 21.1251 21.2685C21.4554 20.9313 21.4978 20.8878 21.8314 20.9737C22.1012 21.0433 22.3306 21.1047 22.5292 21.158C23.2087 21.3399 23.583 21.4402 24 21.4402C24.417 21.4402 24.7913 21.34 25.4708 21.158C25.6694 21.1047 25.8988 21.0433 26.1683 20.9738C26.5017 20.888 26.5445 20.9311 26.8749 21.2685C27.2083 21.6087 27.683 22.0913 28.5968 22.3055V23.3218C28.5968 24.9651 26.9218 27.0823 25.0808 27.7644C24.2826 28.0626 23.7169 28.0624 22.9172 27.7638C21.0782 27.0823 19.4033 24.9651 19.4033 23.3218ZM26.3565 29.8595L24.3628 31.0283C24.3534 31.0338 24.3443 31.0394 24.3353 31.0453C24.0095 31.257 23.9906 31.257 23.6649 31.0453C23.6558 31.0394 23.6468 31.0338 23.6374 31.0283L21.6433 29.8592C21.9502 29.6281 22.153 29.3139 22.2923 29.0285C22.3372 29.0465 22.3819 29.065 22.4271 29.0817C22.986 29.2905 23.4932 29.3948 24.0004 29.3948C24.5071 29.3948 25.0138 29.2906 25.5713 29.0824C25.617 29.0654 25.6623 29.0467 25.7078 29.0285C25.8471 29.3142 26.0498 29.6286 26.3565 29.8595ZM26.8991 43.497C26.8991 45.0965 25.5986 46.3977 24.0001 46.3977C22.4016 46.3977 21.1011 45.0965 21.1011 43.497C21.1011 41.899 22.4016 40.5989 24.0001 40.5989C25.5986 40.5989 26.8991 41.899 26.8991 43.497ZM30.6998 33.8582C28.7974 35.1824 26.4879 35.96 24.0001 35.96C21.5123 35.96 19.2028 35.1823 17.3004 33.8582V33.3415C17.3004 31.5779 18.2644 30.9674 19.8977 30.4658L22.9129 32.2337C23.3033 32.4851 23.6517 32.6108 24.0001 32.6108C24.3485 32.6108 24.6968 32.4851 25.0873 32.2337L28.1025 30.4658C29.7358 30.9674 30.6998 31.5779 30.6998 33.3415V33.8582ZM40.3965 46.5938C39.0545 46.5938 37.8148 46.1476 36.8172 45.3961C36.9243 44.2462 37.5845 43.212 38.583 42.6236C39.1129 42.944 39.7335 43.1287 40.3965 43.1287C41.06 43.1287 41.6811 42.9437 42.2112 42.6229C43.2091 43.2108 43.8689 44.2452 43.9759 45.3961C42.9782 46.1476 41.7385 46.5938 40.3965 46.5938ZM38.2863 39.611C38.2863 38.4467 39.233 37.4995 40.3965 37.4995C41.56 37.4995 42.5066 38.4468 42.5066 39.611C42.5066 40.7752 41.56 41.7224 40.3965 41.7224C39.233 41.7224 38.2863 40.7752 38.2863 39.611ZM45.1615 44.2099C44.8305 43.1751 44.1683 42.2658 43.2713 41.6328C43.6748 41.0603 43.9129 40.3631 43.9129 39.611C43.9129 37.6713 42.3354 36.0933 40.3965 36.0933C38.4575 36.0933 36.88 37.6714 36.88 39.611C36.88 40.3636 37.1183 41.0612 37.5223 41.6339C36.6252 42.2672 35.9628 43.1761 35.6317 44.2102C34.8799 43.2119 34.4335 41.971 34.4335 40.6276C34.4335 37.3378 37.1085 34.6613 40.3965 34.6613C43.6845 34.6613 46.3595 37.3378 46.3595 40.6276C46.3595 41.9708 45.9131 43.2116 45.1615 44.2099Z" fill="white"/>
  </g>
  <defs>
    <clipPath id="clip0_2166_939">
      <rect width="48" height="48" fill="white"/>
    </clipPath>
  </defs>
</svg>