<svg width="58" height="58" viewBox="0 0 58 58" fill="none" xmlns="http://www.w3.org/2000/svg">
<g id="Frame">
<g id="Layer 36">
<path id="Vector" d="M42.0055 23.299C42.0087 21.1345 41.4524 19.0046 40.3889 17.1091C39.3253 15.2137 37.7894 13.6147 35.925 12.4622C34.0607 11.3097 31.929 10.6415 29.73 10.5201C27.531 10.3987 25.3366 10.8282 23.3526 11.7683C21.3687 12.7084 19.6602 14.1283 18.3874 15.8948C17.1146 17.6613 16.3192 19.7166 16.0758 21.8679C15.8323 24.0191 16.1489 26.1959 16.9956 28.1941C17.8424 30.1923 19.1917 31.9463 20.917 33.2918V46.8115C20.9176 46.9359 20.9536 47.0577 21.0208 47.1632C21.0881 47.2686 21.1839 47.3535 21.2976 47.4082C21.4113 47.4655 21.5393 47.4893 21.6663 47.4766C21.7934 47.464 21.914 47.4155 22.0136 47.337L29.0008 42.0645L35.988 47.337C36.1051 47.432 36.253 47.4825 36.4048 47.4795C36.5086 47.477 36.6105 47.4527 36.7039 47.4082C36.8176 47.3535 36.9135 47.2686 36.9807 47.1632C37.048 47.0577 37.0839 46.9359 37.0845 46.8115V33.2918C38.6136 32.0944 39.8496 30.5749 40.7013 28.8454C41.553 27.1158 41.9987 25.2204 42.0055 23.299ZM17.3555 23.299C17.3555 21.7961 17.6567 20.3079 18.2419 18.9194C18.8271 17.5309 19.6849 16.2692 20.7663 15.2065C21.8477 14.1438 23.1314 13.3008 24.5443 12.7256C25.9572 12.1505 27.4715 11.8545 29.0008 11.8545C30.5301 11.8545 32.0444 12.1505 33.4572 12.7256C34.8701 13.3008 36.1539 14.1438 37.2353 15.2065C38.3166 16.2692 39.1744 17.5309 39.7596 18.9194C40.3449 20.3079 40.6461 21.7961 40.6461 23.299C40.6535 25.0748 40.2368 26.8275 39.4293 28.4162C38.6218 30.0048 37.4462 31.385 35.997 32.4457C33.9836 33.937 31.531 34.7436 29.0098 34.7436C26.4887 34.7436 24.036 33.937 22.0226 32.4457C20.5701 31.3869 19.391 30.0075 18.5803 28.4188C17.7697 26.83 17.3501 25.0763 17.3555 23.299ZM35.7251 45.4578L29.3814 40.6929C29.2604 40.6061 29.1144 40.5592 28.9645 40.5592C28.8147 40.5592 28.6687 40.6061 28.5476 40.6929L22.2039 45.4578V34.2448C24.2341 35.4455 26.5588 36.08 28.9283 36.08C31.2978 36.08 33.6225 35.4455 35.6526 34.2448L35.7251 45.4578Z" fill="white"/>
<path id="Vector_2" d="M23.5619 29.6044C23.5391 29.727 23.5525 29.8534 23.6007 29.9687C23.6489 30.0839 23.7298 30.1832 23.8338 30.2545C23.9362 30.3282 24.0575 30.3723 24.184 30.3817C24.3105 30.3912 24.4372 30.3656 24.5497 30.308L28.9994 28.0191L33.4219 30.308C33.5191 30.3604 33.6282 30.388 33.7391 30.3881C33.8835 30.3888 34.024 30.3418 34.1379 30.2545C34.2418 30.1832 34.3227 30.0839 34.3709 29.9687C34.4191 29.8534 34.4326 29.727 34.4097 29.6044L33.5307 24.7594L37.1557 21.3305C37.2476 21.244 37.3127 21.1336 37.3431 21.0122C37.3736 20.8907 37.3683 20.7633 37.3279 20.6447C37.289 20.5269 37.2175 20.422 37.1215 20.3418C37.0255 20.2616 36.9087 20.2092 36.7841 20.1905L31.836 19.478L29.6157 15.0783C29.5548 14.9727 29.4666 14.8849 29.3599 14.8238C29.2532 14.7627 29.132 14.7305 29.0085 14.7305C28.885 14.7305 28.7638 14.7627 28.6571 14.8238C28.5504 14.8849 28.4621 14.9727 28.4013 15.0783L26.181 19.478L21.2329 20.1905C21.1083 20.2092 20.9915 20.2616 20.8954 20.3418C20.7994 20.422 20.728 20.5269 20.6891 20.6447C20.6486 20.7633 20.6433 20.8907 20.6738 21.0122C20.7043 21.1336 20.7693 21.244 20.8613 21.3305L24.4682 24.7594L23.5619 29.6044ZM22.7554 21.3127L26.6975 20.7516C26.8077 20.7375 26.9125 20.6968 27.0027 20.633C27.0929 20.5693 27.1655 20.4845 27.2141 20.3864L28.9994 16.8773L30.7575 20.3864C30.8061 20.4845 30.8788 20.5693 30.969 20.633C31.0591 20.6968 31.164 20.7375 31.2741 20.7516L35.2163 21.3127L32.3616 24.0469C32.2815 24.1207 32.2219 24.2135 32.1886 24.3164C32.1553 24.4193 32.1493 24.5289 32.1713 24.6347L32.8419 28.4911L29.3166 26.7098C29.2193 26.6576 29.1103 26.6302 28.9994 26.6302C28.8886 26.6302 28.7795 26.6576 28.6822 26.7098L25.1569 28.4911L25.8275 24.6347C25.8495 24.5289 25.8436 24.4193 25.8103 24.3164C25.777 24.2135 25.7174 24.1207 25.6372 24.0469L22.7554 21.3127Z" fill="white"/>
<path id="Vector_3" d="M43.5 54.6055H14.5C11.4362 54.6031 8.49866 53.406 6.33225 51.2769C4.16585 49.1479 2.94771 46.2609 2.94531 43.25V14.75C2.94771 11.7391 4.16585 8.85213 6.33225 6.72308C8.49866 4.59402 11.4362 3.39689 14.5 3.39453H43.5C46.5638 3.39689 49.5013 4.59402 51.6677 6.72308C53.8342 8.85213 55.0523 11.7391 55.0547 14.75V43.25C55.0523 46.2609 53.8342 49.1479 51.6677 51.2769C49.5013 53.406 46.5638 54.6031 43.5 54.6055ZM14.5 4.73047C11.7975 4.73518 9.20707 5.79232 7.29612 7.67032C5.38516 9.54833 4.30948 12.0941 4.30469 14.75V43.25C4.30948 45.9059 5.38516 48.4517 7.29612 50.3297C9.20707 52.2077 11.7975 53.2648 14.5 53.2695H43.5C46.2025 53.2648 48.7929 52.2077 50.7039 50.3297C52.6148 48.4517 53.6905 45.9059 53.6953 43.25V14.75C53.6905 12.0941 52.6148 9.54833 50.7039 7.67032C48.7929 5.79232 46.2025 4.73518 43.5 4.73047H14.5Z" fill="white"/>
</g>
</g>
</svg>
