<svg width="25" height="21" viewBox="0 0 25 21" fill="none" xmlns="http://www.w3.org/2000/svg">
<g clip-path="url(#clip0_55_628)">
<path d="M8.91075 19.7148C17.213 19.7148 21.7546 12.788 21.7546 6.79153C21.7546 6.5977 21.7546 6.40109 21.7464 6.20726C22.6306 5.56273 23.3937 4.76477 24 3.85077C23.1741 4.21746 22.2988 4.45914 21.4026 4.56796C22.3466 3.9998 23.0536 3.10584 23.3923 2.05225C22.5054 2.58131 21.5346 2.95272 20.5226 3.15019C19.8423 2.42057 18.9419 1.93722 17.9611 1.775C16.9803 1.61279 15.9737 1.78077 15.0973 2.25292C14.2209 2.72507 13.5236 3.47504 13.1134 4.38667C12.7031 5.29829 12.6029 6.3207 12.8281 7.29551C11.0334 7.20489 9.27762 6.73541 7.67468 5.91753C6.07175 5.09965 4.65744 3.95162 3.5235 2.54791C2.94784 3.54905 2.77216 4.73327 3.03214 5.8601C3.29211 6.98694 3.96825 7.9719 4.92325 8.61497C4.20762 8.59049 3.50772 8.39699 2.88 8.05008V8.11239C2.88123 9.16115 3.24205 10.1773 3.90145 10.9891C4.56086 11.8009 5.4784 12.3586 6.499 12.5678C6.11161 12.6753 5.71144 12.7289 5.30963 12.7271C5.02635 12.7279 4.74365 12.7015 4.46537 12.6481C4.75383 13.5509 5.3155 14.3403 6.07171 14.9056C6.82793 15.4709 7.74081 15.7839 8.6825 15.8007C7.08276 17.0659 5.10668 17.7521 3.0725 17.7488C2.71407 17.7503 2.35588 17.7295 2 17.6865C4.06458 19.0119 6.46228 19.7156 8.91075 19.7148Z" fill="white"/>
</g>
<defs>
<clipPath id="clip0_55_628">
<rect width="24" height="19.7647" fill="white" transform="translate(0.5 0.83252)"/>
</clipPath>
</defs>
</svg>
